<?xml version="1.0" encoding="utf-8"?>
<!-- Generator: Adobe Illustrator 25.2.0, SVG Export Plug-In . SVG Version: 6.00 Build 0)  -->
<svg version="1.1" id="Layer_1" xmlns="http://www.w3.org/2000/svg" xmlns:xlink="http://www.w3.org/1999/xlink" x="0px" y="0px"
	 viewBox="0 0 425.2 113.4" style="enable-background:new 0 0 425.2 113.4;" xml:space="preserve">
<style type="text/css">
	.st0{fill:url(#SVGID_1_);}
	.st1{fill:#FFFFFF;}
</style>
<g>
	<g>
		<linearGradient id="SVGID_1_" gradientUnits="userSpaceOnUse" x1="4.7957" y1="123.8927" x2="123.5174" y2="36.5314">
			<stop  offset="0.5195" style="stop-color:#F16933"/>
			<stop  offset="0.8447" style="stop-color:#FAAE36"/>
			<stop  offset="1" style="stop-color:#FFD134"/>
		</linearGradient>
		<path class="st0" d="M97.3,74.1c2.6,1.5,5.2,3,7.7,4.6c4,2.3,8,4.7,11.9,7c1.2,0.7,2.6,1.4,3.4,2.7c2.2,3.5-2.3,7.3-5.6,5.5
			c-2.5-1.3-4.8-2.9-7.2-4.3c-4-2.4-8-4.7-12.1-7.1c-0.9-0.6-2-1-2.8-1.7c-0.4-0.4-0.7-0.8-0.9-1.3c-0.1-0.2-0.3-1.7-0.3-1.7
			l-1.9-1.2c0,0-4.6,5.3-7.7,7c-3.6,2.1-11.8,4.9-19.9,2.1c-5-1.7-9.6-4.8-12.8-9.1c-1.4-1.9-2.5-4.1-3.3-6.4
			c-0.4-1.3-0.7-2.5-0.9-3.9c-0.2-1.6-0.7-3.3,0.1-4.8c0.7-1.2,2-2,3.4-2c2.4,0,3.8,1.5,4.1,3.3s1.6,14.9,16.9,15.9
			c9.4-0.6,16.3-6,16.9-17c-0.1-4.3-2.2-16.2-17.2-17c-6.3,0.3-10.5,2.9-15.9,9.7c-1.3,1.8-4,2-5.7,0.6c-0.7-0.5-1.1-1.3-1.2-2.2
			c-0.2-2.3,1.9-4.9,3.2-6.6c2.5-3.2,5.8-6,9.7-7.4c7.8-2.8,10.8-2.3,15.3-1.6c-1.6-1.9-3.3-3.6-5.1-5.2c-1.3-1.2-3.2-2.1-3.8-3.8
			c-0.3-0.9-0.2-1.9,0.2-2.8c0.4-0.8,1.3-1.7,2.1-2c1.4-0.5,2.9,0.2,4,1.1c1.2,1,2.4,2,3.6,3c5.1,4.6,9.6,10.5,12.6,16.7
			c-0.1-0.1,0-0.4,0-0.5c0-0.5-0.1-1-0.2-1.4c-0.2-1.7-0.6-3.4-1-5.1c-0.7-2.6-1.5-5.1-2.6-7.5c-0.6-1.2-1.2-2.4-1.9-3.5
			c-0.6-1-1.4-2-1.5-3.2c0-0.1,0-0.2,0-0.3c0.1-1.4,0.8-3.8,3.6-3.8c2.7,0.1,4.2,3.2,4.4,3.8s3.8,6.3,5.6,14.1c0,0,0.8,4,0.9,4.6
			c0,0,1.7-6,2-13.6c0.2-1.7,1.3-3,3.7-2.8c2.3,0.1,3.5,1.8,3.6,4.3c0.2,4.2-3.9,27.8-13.1,43.5l1.7,1.2
			C93.6,74.3,95.2,72.8,97.3,74.1z"/>
		<path d="M68.4,65.1c-1.6,0-2.9-1.3-2.9-2.9c0-1.4,0.9-2.5,2.2-2.8c-0.9-0.5-2-0.8-3.2-0.8c-3.7,0-6.6,2.9-6.6,6.6
			c0,3.6,3,6.6,6.6,6.6s6.6-2.9,6.6-6.6c0-0.5-0.1-1-0.2-1.5C70.4,64.5,69.5,65.1,68.4,65.1z M66.3,68.5c-0.6,0-1.2-0.5-1.2-1.2
			c0-0.6,0.5-1.2,1.2-1.2c0.6,0,1.2,0.5,1.2,1.2C67.4,68,66.9,68.5,66.3,68.5z"/>
		<path class="st1" d="M65.4,62.2c0,1.6,1.3,2.9,2.9,2.9c1.1,0,2-0.6,2.5-1.5c-0.4-1.8-1.7-3.4-3.3-4.2
			C66.4,59.7,65.4,60.8,65.4,62.2z"/>
		<path class="st1" d="M66.3,66.2c-0.6,0-1.2,0.5-1.2,1.2c0,0.6,0.5,1.2,1.2,1.2c0.6,0,1.2-0.5,1.2-1.2
			C67.4,66.7,66.9,66.2,66.3,66.2z"/>
	</g>
	<g>
		<g>
			<path d="M169,56h-15.7l-3,7.2h-8l15.1-33.8h7.7l15.1,33.8H172L169,56z M166.6,50l-5.4-12.9L155.9,50H166.6z"/>
			<path d="M183.7,29.4h7.8v27.4h16.9v6.4h-24.7V29.4z"/>
			<path d="M257.5,29.4v33.8h-7.8V49.4h-15.3v13.8h-7.8V29.4h7.8v13.3h15.3V29.4H257.5z"/>
			<path d="M263.3,46.3c0-10,7.8-17.5,18.5-17.5c10.6,0,18.5,7.4,18.5,17.5c0,10.1-7.9,17.5-18.5,17.5
				C271.2,63.8,263.3,56.4,263.3,46.3z M292.4,46.3c0-6.4-4.5-10.8-10.6-10.8c-6,0-10.6,4.4-10.6,10.8c0,6.4,4.5,10.8,10.6,10.8
				C287.8,57.1,292.4,52.7,292.4,46.3z"/>
			<path d="M304,46.3c0-10,7.8-17.5,18.5-17.5c10.6,0,18.5,7.4,18.5,17.5c0,10.1-7.9,17.5-18.5,17.5C311.9,63.8,304,56.4,304,46.3z
				 M333.1,46.3c0-6.4-4.5-10.8-10.6-10.8S312,39.9,312,46.3c0,6.4,4.5,10.8,10.6,10.8S333.1,52.7,333.1,46.3z"/>
			<path d="M368.4,63.2l-6.5-9.4h-0.4h-6.8v9.4h-7.8V29.4h14.6c9,0,14.7,4.7,14.7,12.3c0,5.1-2.6,8.8-6.9,10.7l7.6,10.9H368.4z
				 M361.1,35.8h-6.4v11.8h6.4c4.8,0,7.2-2.2,7.2-5.9C368.2,38,365.8,35.8,361.1,35.8z"/>
		</g>
		<g>
			<path d="M140.8,78.8c0-3.3,2.5-5.7,5.9-5.7c1.7,0,3.2,0.6,4.2,1.7l-1,1c-0.9-0.9-1.9-1.3-3.1-1.3c-2.5,0-4.4,1.8-4.4,4.3
				c0,2.5,1.9,4.3,4.4,4.3c1.2,0,2.3-0.4,3.1-1.3l1,1c-1,1.1-2.5,1.8-4.3,1.8C143.3,84.5,140.8,82.1,140.8,78.8z"/>
			<path d="M155.3,78.8c0-3.3,2.5-5.7,5.9-5.7c3.4,0,5.9,2.4,5.9,5.7s-2.5,5.7-5.9,5.7C157.8,84.5,155.3,82.1,155.3,78.8z
				 M165.5,78.8c0-2.5-1.8-4.3-4.3-4.3c-2.5,0-4.4,1.8-4.4,4.3c0,2.5,1.8,4.3,4.4,4.3C163.7,83.1,165.5,81.3,165.5,78.8z"/>
			<path d="M183.1,84.4l0-8.1l-4,6.8h-0.7l-4-6.7v8.1h-1.5V73.2h1.3l4.7,7.8l4.6-7.8h1.3l0,11.2H183.1z"/>
			<path d="M201.5,84.4l0-8.1l-4,6.8h-0.7l-4-6.7v8.1h-1.5V73.2h1.3l4.7,7.8l4.6-7.8h1.3l0,11.2H201.5z"/>
			<path d="M217.7,83v1.4h-8.1V73.2h7.9v1.4h-6.3v3.4h5.6v1.4h-5.6V83H217.7z"/>
			<path d="M230.9,84.4l-2.4-3.4c-0.2,0-0.5,0-0.7,0H225v3.4h-1.6V73.2h4.4c2.9,0,4.7,1.5,4.7,3.9c0,1.7-0.9,3-2.5,3.5l2.6,3.7
				H230.9z M230.9,77.1c0-1.6-1.1-2.5-3.1-2.5H225v5h2.7C229.8,79.6,230.9,78.7,230.9,77.1z"/>
			<path d="M237.3,78.8c0-3.3,2.5-5.7,5.9-5.7c1.7,0,3.2,0.6,4.2,1.7l-1,1c-0.9-0.9-1.9-1.3-3.1-1.3c-2.5,0-4.4,1.8-4.4,4.3
				c0,2.5,1.9,4.3,4.4,4.3c1.2,0,2.3-0.4,3.1-1.3l1,1c-1,1.1-2.5,1.8-4.3,1.8C239.8,84.5,237.3,82.1,237.3,78.8z"/>
			<path d="M252.9,73.2h1.6v11.2h-1.6V73.2z"/>
			<path d="M268.2,81.6h-5.9l-1.2,2.8h-1.6l5.1-11.2h1.6l5.1,11.2h-1.7L268.2,81.6z M267.6,80.3l-2.4-5.5l-2.4,5.5H267.6z"/>
			<path d="M275.9,73.2h1.6V83h6v1.4h-7.6V73.2z"/>
			<path d="M305.6,81.4c0,1.9-1.4,3-4.3,3H296V73.2h5c2.6,0,4,1.1,4,2.9c0,1.2-0.6,2.1-1.5,2.5C304.8,79,305.6,79.9,305.6,81.4z
				 M297.6,74.5v3.6h3.3c1.6,0,2.6-0.6,2.6-1.8c0-1.2-0.9-1.8-2.6-1.8H297.6z M304,81.3c0-1.3-1-1.9-2.7-1.9h-3.7v3.7h3.7
				C303.1,83.1,304,82.5,304,81.3z"/>
			<path d="M318.8,84.4l-2.4-3.4c-0.2,0-0.5,0-0.7,0h-2.8v3.4h-1.6V73.2h4.4c2.9,0,4.7,1.5,4.7,3.9c0,1.7-0.9,3-2.5,3.5l2.6,3.7
				H318.8z M318.7,77.1c0-1.6-1.1-2.5-3.1-2.5h-2.7v5h2.7C317.7,79.6,318.7,78.7,318.7,77.1z"/>
			<path d="M325.2,78.8c0-3.3,2.5-5.7,5.9-5.7c3.4,0,5.9,2.4,5.9,5.7s-2.5,5.7-5.9,5.7C327.7,84.5,325.2,82.1,325.2,78.8z
				 M335.4,78.8c0-2.5-1.8-4.3-4.3-4.3c-2.5,0-4.4,1.8-4.4,4.3c0,2.5,1.8,4.3,4.4,4.3C333.6,83.1,335.4,81.3,335.4,78.8z"/>
			<path d="M346.3,79.4l-2,2.1v2.9h-1.6V73.2h1.6v6.2l6.1-6.2h1.8l-4.8,5l5.1,6.1h-1.9L346.3,79.4z"/>
			<path d="M365.4,83v1.4h-8.1V73.2h7.9v1.4h-6.3v3.4h5.6v1.4h-5.6V83H365.4z"/>
			<path d="M378.6,84.4l-2.4-3.4c-0.2,0-0.5,0-0.7,0h-2.8v3.4h-1.6V73.2h4.4c2.9,0,4.7,1.5,4.7,3.9c0,1.7-0.9,3-2.5,3.5l2.6,3.7
				H378.6z M378.6,77.1c0-1.6-1.1-2.5-3.1-2.5h-2.7v5h2.7C377.5,79.6,378.6,78.7,378.6,77.1z"/>
		</g>
	</g>
</g>
</svg>
