<svg xmlns="http://www.w3.org/2000/svg" xmlns:xlink="http://www.w3.org/1999/xlink" width="453.214" height="352" viewBox="0 0 453.214 352">
  <defs>
    <linearGradient id="linear-gradient" x1="0.5" y1="1" x2="0.5" gradientUnits="objectBoundingBox">
      <stop offset="0"/>
      <stop offset="0.007" stop-color="#090909"/>
      <stop offset="0.048" stop-color="#373737"/>
      <stop offset="0.093" stop-color="#626262"/>
      <stop offset="0.142" stop-color="#878787"/>
      <stop offset="0.195" stop-color="#a8a8a8"/>
      <stop offset="0.254" stop-color="#c3c3c3"/>
      <stop offset="0.32" stop-color="#d9d9d9"/>
      <stop offset="0.397" stop-color="#eaeaea"/>
      <stop offset="0.493" stop-color="#f6f6f6"/>
      <stop offset="0.627" stop-color="#fdfdfd"/>
      <stop offset="1" stop-color="#fff"/>
    </linearGradient>
    <linearGradient id="linear-gradient-2" x1="-67.996" y1="0.578" x2="-66.654" y2="0.355" gradientUnits="objectBoundingBox">
      <stop offset="0.473" stop-color="#fff"/>
      <stop offset="0.605" stop-color="#fcfcfc"/>
      <stop offset="0.667" stop-color="#f5f5f5"/>
      <stop offset="0.716" stop-color="#e8e8e8"/>
      <stop offset="0.756" stop-color="#d5d5d5"/>
      <stop offset="0.793" stop-color="#bdbdbd"/>
      <stop offset="0.825" stop-color="#a0a0a0"/>
      <stop offset="0.856" stop-color="#7d7d7d"/>
      <stop offset="0.884" stop-color="#545454"/>
      <stop offset="0.91" stop-color="#272727"/>
      <stop offset="0.929"/>
    </linearGradient>
    <linearGradient id="linear-gradient-3" x1="0.5" x2="0.5" y2="1" gradientUnits="objectBoundingBox">
      <stop offset="0" stop-color="#fff"/>
      <stop offset="1" stop-color="#fff" stop-opacity="0.8"/>
    </linearGradient>
    <filter id="Ellipse_11" x="299.214" y="0" width="51" height="51" filterUnits="userSpaceOnUse">
      <feOffset dy="3" input="SourceAlpha"/>
      <feGaussianBlur stdDeviation="3" result="blur"/>
      <feFlood flood-opacity="0.161"/>
      <feComposite operator="in" in2="blur"/>
      <feComposite in="SourceGraphic"/>
    </filter>
    <filter id="Ellipse_12" x="407.214" y="166" width="46" height="46" filterUnits="userSpaceOnUse">
      <feOffset dy="3" input="SourceAlpha"/>
      <feGaussianBlur stdDeviation="3" result="blur-2"/>
      <feFlood flood-opacity="0.161"/>
      <feComposite operator="in" in2="blur-2"/>
      <feComposite in="SourceGraphic"/>
    </filter>
  </defs>
  <g id="Group_343" data-name="Group 343" transform="translate(41.214 -34)">
    <g id="Group_40" data-name="Group 40" transform="translate(-41.214 69.639)">
      <g id="Group_39" data-name="Group 39">
        <path id="Path_1" data-name="Path 1" d="M207.952,912.8,164.17,956.515a5.139,5.139,0,0,1-7.355-.094l-29.43-30.939s-10.6-3.815-13.139-9.324L98.98,912.594Z" transform="translate(-1.735 -641.657)" opacity="0.05"/>
        <path id="Path_2" data-name="Path 2" d="M376.774,380.247c-.252,1.093-.487,2.353-.689,3.8l3.84,66.919-57.776-2.1,1.734-81.481,37.982-14.011S383.278,351.959,376.774,380.247Z" transform="translate(-130.317 -319.445)" fill="#0d4472"/>
        <path id="Path_3" data-name="Path 3" d="M10.866,663.465c0-.414-.01-.826-.01-1.24,0-100.5,53.22-181.974,118.87-181.974S248.6,561.724,248.6,662.225c0,.415-.008.826-.01,1.24Z" transform="translate(49.039 -392.556)" fill="#fff"/>
        <path id="Path_4" data-name="Path 4" d="M411.912,335.173l19.405,7.18a10.006,10.006,0,0,1,3.365,16.689l-16.608,15.544Z" transform="translate(-182.035 -308.967)" fill="#4890d6"/>
        <path id="Path_5" data-name="Path 5" d="M257.468,455.46l-44.747-33.935,24.847-83.094,49.846,10.946Z" transform="translate(-67.268 -310.844)" fill="#f88f62"/>
        <path id="Path_6" data-name="Path 6" d="M335.077,309.932v1.263a31.244,31.244,0,0,1-.748,6.29,32.855,32.855,0,0,1-35.7,25.548c-1.108-.129-2.217-.335-3.325-.567a32.339,32.339,0,0,1-5.285-1.65,32.773,32.773,0,1,1,30.136-57.875l1.7,1.186.258.181a32.824,32.824,0,0,1,12.921,25.622Z" transform="translate(-100.01 -275.833)" fill="#ffa669"/>
        <path id="Path_7" data-name="Path 7" d="M360.96,390.512a8.162,8.162,0,0,1-.052,1.135c-.592,9.2-9.925,16.37-19.051,14.359l-25.212-5.517-.877-19-1.521-33.229,4.692.232,41.891,2.114v1.263Z" transform="translate(-125.764 -316.507)" fill="#ffa669"/>
        <path id="Path_8" data-name="Path 8" d="M367.121,357.009a8.152,8.152,0,0,1-.052,1.135c-5,6.96-11.523,10.93-19.927,7.94-8.069-2.861-13.277-8.868-16.6-15.88-5.8-12.245-5.878-27.635-5.44-35.214.129-2.913.361-4.666.361-4.666l26.6-20.211,1.7,1.186.258.181A32.824,32.824,0,0,1,366.946,317.1l.046,0v1.263Z" transform="translate(-131.926 -283.004)" fill="#ffa669"/>
        <path id="Path_9" data-name="Path 9" d="M384.761,462.474a1.287,1.287,0,0,1-1.163-1.4q-.4-2.084-.8-4.169l4.678.273-1.32,4.132A1.287,1.287,0,0,1,384.761,462.474Z" transform="translate(-165.263 -379.105)" fill="#2c2334"/>
        <path id="Path_10" data-name="Path 10" d="M370.842,431.383H390.91s1.016-3.93-5.357-4.823S370.842,431.383,370.842,431.383Z" transform="translate(-158.372 -361.566)" fill="#2c2334"/>
        <path id="Path_11" data-name="Path 11" d="M10.866,663.465c0-.414-.01-.826-.01-1.24,0-100.5,53.22-181.974,118.87-181.974S248.6,561.724,248.6,662.225c0,.415-.008.826-.01,1.24Z" transform="translate(49.039 -392.556)" opacity="0.05" fill="url(#linear-gradient)" style="mix-blend-mode: multiply;isolation: isolate"/>
        <path id="Path_12" data-name="Path 12" d="M385.361,446c-2.576,1.121-5.334-.5-6.588-2.3a5.939,5.939,0,0,1-1.017-3.183H388.4A5.416,5.416,0,0,1,385.361,446Z" transform="translate(-162.356 -369.659)" fill="#2c2334"/>
        <path id="Path_13" data-name="Path 13" d="M325.09,304.026H299.949c-10.282-.145-10.959,15.954-23.771,21.547a48.058,48.058,0,0,1-23.32,4.029l7.833-26.172a32.775,32.775,0,0,1,39.033-25A33.245,33.245,0,0,1,325.09,304.026Z" transform="translate(-90.394 -275.832)" fill="#2c2334"/>
        <path id="Path_14" data-name="Path 14" d="M329.937,473.668l-19.485-4.279,16.393,15.233Z" transform="translate(-123.577 -386.298)" fill="#2c2334"/>
        <circle id="Ellipse_1" data-name="Ellipse 1" cx="10.744" cy="10.744" r="10.744" transform="translate(167.809 45.455) rotate(-35.601)" fill="#ffa669"/>
        <g id="Group_2" data-name="Group 2" transform="translate(226.637 54.475)">
          <path id="Path_15" data-name="Path 15" d="M409.186,411.161h-4.918v-1.749h3.169v-7.54h1.749Z" transform="translate(-404.267 -401.872)" fill="#2c2334"/>
        </g>
        <path id="Path_16" data-name="Path 16" d="M260.683,307.961h70.591s2.334-34.619-32.984-34.619C263.834,273.342,260.683,307.961,260.683,307.961Z" transform="translate(-94.902 -273.342)" fill="#4890d6"/>
        <path id="Path_17" data-name="Path 17" d="M344,350.967s17.737,10.492,28.662,10.485,6.642-11.03,6.642-11.03Z" transform="translate(-142.905 -317.753)" fill="#4890d6"/>
        <path id="Path_18" data-name="Path 18" d="M251.193,335.173l-19.405,7.18a10.006,10.006,0,0,0-3.365,16.689l16.608,15.544Z" transform="translate(-74.488 -308.967)" fill="#4890d6"/>
        <rect id="Rectangle_5" data-name="Rectangle 5" width="77.315" height="11.094" rx="2.053" transform="translate(163.96 20.659)" fill="#2c2334"/>
        <path id="Path_19" data-name="Path 19" d="M381.239,383.314a5.8,5.8,0,0,0-2.461-2.064c-2.032-.849-3.611.1-7.621.635-3.714.5-5.185.059-5.24.4-.112.692,5.937,3.345,12.3,1.985A16.677,16.677,0,0,0,381.239,383.314Z" transform="translate(-155.534 -335.32)" fill="#2c2334"/>
        <path id="Path_20" data-name="Path 20" d="M390.555,392.527a10.189,10.189,0,0,1-.115,5.452,2.889,2.889,0,0,1-2.457,2.16,2.783,2.783,0,0,1-1.888-.949c-2.128-2.064-1.5-5.4-1.257-6.451a6.18,6.18,0,0,1,5.717-.213Z" transform="translate(-166.276 -341.667)" fill="#2c2334"/>
        <g id="Group_8" data-name="Group 8" transform="translate(192.452 43.145)">
          <g id="Group_3" data-name="Group 3" transform="translate(0 0.267)">
            <path id="Path_21" data-name="Path 21" d="M346.144,385.029l-22.012-7.976-.521-1.283,22.887,8.124Z" transform="translate(-323.611 -375.77)" fill="url(#linear-gradient-2)"/>
          </g>
          <g id="Group_6" data-name="Group 6" transform="translate(21.567)">
            <g id="Group_4" data-name="Group 4">
              <path id="Path_22" data-name="Path 22" d="M381.791,394.716c-4.034-.009-7.306-4.408-7.294-9.805s3.3-9.781,7.338-9.772,7.306,4.408,7.293,9.805S385.824,394.725,381.791,394.716Zm.041-18.114c-3.228-.007-5.862,3.722-5.872,8.313s2.606,8.332,5.834,8.339,5.861-3.721,5.871-8.313S385.059,376.609,381.832,376.6Z" transform="translate(-374.497 -375.139)" fill="#fff"/>
            </g>
            <g id="Group_5" data-name="Group 5" transform="translate(19.123 0.171)">
              <path id="Path_23" data-name="Path 23" d="M424.537,394.847c-2.772-.006-4.933-4.251-4.921-9.663s2.193-9.647,4.965-9.641,4.935,4.251,4.923,9.663S427.309,394.853,424.537,394.847Zm.041-18.114c-1.813,0-3.761,3.391-3.773,8.454s1.921,8.467,3.734,8.471,3.763-3.392,3.774-8.454S426.391,376.737,424.578,376.733Z" transform="translate(-419.616 -375.543)" fill="#fff"/>
            </g>
          </g>
          <g id="Group_7" data-name="Group 7" transform="translate(35.982 9.209)">
            <rect id="Rectangle_6" data-name="Rectangle 6" width="1.19" height="5.301" transform="matrix(0.002, -1, 1, 0.002, 0, 1.19)" fill="#fff"/>
          </g>
        </g>
        <g id="Group_10" data-name="Group 10" transform="translate(144.552 95.833)">
          <g id="Group_9" data-name="Group 9" transform="translate(39.945 38.645)">
            <path id="Path_24" data-name="Path 24" d="M314.925,727.224,304.841,590.937l5.033-.305L319.9,727.109Z" transform="translate(-304.841 -590.631)" fill="#2c2334"/>
          </g>
          <path id="Path_25" data-name="Path 25" d="M264.054,524.362l-2.909-1.646-7.817,20.159,1.608-23.673-34.887-19.748-9.454,23.32,46.059,27.8Z" transform="translate(-210.595 -499.452)" fill="#fff"/>
        </g>
        <g id="Group_14" data-name="Group 14" transform="translate(323.441 26.332)">
          <rect id="Rectangle_7" data-name="Rectangle 7" width="90.603" height="51.891" transform="matrix(0.995, 0.097, -0.097, 0.995, 5.021, 11.504)" fill="#d6a85e"/>
          <rect id="Rectangle_8" data-name="Rectangle 8" width="4.28" height="51.891" transform="matrix(0.995, 0.097, -0.097, 0.995, 73.606, 18.171)" fill="#dac4ae"/>
          <rect id="Rectangle_9" data-name="Rectangle 9" width="50.865" height="51.891" transform="matrix(0.995, 0.097, -0.097, 0.995, 5.021, 11.504)" fill="#f1c989"/>
          <path id="Path_26" data-name="Path 26" d="M644.514,346.974l16.462-11.5,40.034,3.9-19.054,11.248Z" transform="translate(-639.493 -335.47)" fill="#d6a85e"/>
          <path id="Path_27" data-name="Path 27" d="M778.314,366.573l-18.871-8.489-39.552-3.845,18.679,8.47Z" transform="translate(-682.923 -346.284)" fill="#ebbe73"/>
          <path id="Path_28" data-name="Path 28" d="M786.793,367.4l4.26.414-14.2-8.017-4.435-.449Z" transform="translate(-713.188 -349.226)" fill="#f0dcc0"/>
          <path id="Path_29" data-name="Path 29" d="M719.854,354.239l18.679,8.47-18.178-7.275a1.162,1.162,0,0,1-.5-1.2Z" transform="translate(-682.885 -346.284)" fill="#f1c989"/>
          <path id="Path_30" data-name="Path 30" d="M723.388,339.366l-40.034-3.9.159.947,39.157,3.377Z" transform="translate(-661.871 -335.47)" fill="#f1c989"/>
          <rect id="Rectangle_10" data-name="Rectangle 10" width="4.279" height="22.049" transform="matrix(0.995, 0.097, -0.097, 0.995, 27.178, 13.658)" fill="#f7e8d5"/>
          <path id="Path_31" data-name="Path 31" d="M644.514,346.974l16.462-11.5.263.261a.511.511,0,0,1-.089.8Z" transform="translate(-639.493 -335.47)" fill="#f1c989"/>
          <g id="Group_11" data-name="Group 11" transform="translate(21.777 38.937)">
            <path id="Path_32" data-name="Path 32" d="M693.566,431.024l-.978-.095h-.01l-.131-.013.215.911.31-.132.188,1.394-.35-1.113-.254.11-.322-1.191-.634-.061a5.074,5.074,0,0,0-.808,2.485c.1.873,1.123.988,1.4,1l-.21,2.164a3.986,3.986,0,0,0-1.1.156.043.043,0,0,0,.007.085l2.3.223a.043.043,0,0,0,.024-.081,3.473,3.473,0,0,0-1.067-.369l.21-2.161c.311.038,1.276.089,1.535-.72A5.078,5.078,0,0,0,693.566,431.024Z" transform="translate(-687.927 -429.352)" fill="#6b574a"/>
            <path id="Path_33" data-name="Path 33" d="M690.622,427.7l-3.566-.347a2.429,2.429,0,0,0-2.65,2.181l-.347,3.566a2.429,2.429,0,0,0,2.18,2.65l3.566.347a2.429,2.429,0,0,0,2.65-2.18l.346-3.566A2.429,2.429,0,0,0,690.622,427.7Zm1.2,6.154a1.792,1.792,0,0,1-1.955,1.608l-3.566-.347a1.792,1.792,0,0,1-1.608-1.955l.347-3.566a1.792,1.792,0,0,1,1.955-1.608l3.566.347a1.792,1.792,0,0,1,1.608,1.955Z" transform="translate(-684.048 -427.338)" fill="#6b574a"/>
          </g>
          <g id="Group_12" data-name="Group 12" transform="translate(15.264 53.249)">
            <rect id="Rectangle_11" data-name="Rectangle 11" width="19.89" height="4.636" transform="matrix(0.995, 0.097, -0.097, 0.995, 0.449, 0)" fill="#f7e8d5"/>
            <rect id="Rectangle_12" data-name="Rectangle 12" width="0.416" height="3.327" transform="matrix(0.995, 0.097, -0.097, 0.995, 1.382, 0.74)" fill="#474646"/>
            <rect id="Rectangle_13" data-name="Rectangle 13" width="0.957" height="3.327" transform="matrix(0.995, 0.097, -0.097, 0.995, 2.47, 0.846)" fill="#474646"/>
            <rect id="Rectangle_14" data-name="Rectangle 14" width="0.365" height="3.327" transform="matrix(0.995, 0.097, -0.097, 0.995, 3.968, 0.992)" fill="#474646"/>
            <rect id="Rectangle_15" data-name="Rectangle 15" width="0.388" height="3.327" transform="matrix(0.995, 0.097, -0.097, 0.995, 4.92, 1.084)" fill="#474646"/>
            <rect id="Rectangle_16" data-name="Rectangle 16" width="1.231" height="3.327" transform="matrix(0.995, 0.097, -0.097, 0.995, 6.1, 1.199)" fill="#474646"/>
            <rect id="Rectangle_17" data-name="Rectangle 17" width="0.273" height="3.327" transform="matrix(0.995, 0.097, -0.097, 0.995, 8.051, 1.389)" fill="#292623"/>
            <rect id="Rectangle_18" data-name="Rectangle 18" width="1.641" height="3.327" transform="matrix(0.995, 0.097, -0.097, 0.995, 8.777, 1.459)" fill="#474646"/>
            <rect id="Rectangle_19" data-name="Rectangle 19" width="0.41" height="3.327" transform="matrix(0.995, 0.097, -0.097, 0.995, 10.909, 1.667)" fill="#474646"/>
            <rect id="Rectangle_20" data-name="Rectangle 20" width="0.82" height="3.327" transform="matrix(0.995, 0.097, -0.097, 0.995, 12.225, 1.795)" fill="#474646"/>
            <rect id="Rectangle_21" data-name="Rectangle 21" width="0.442" height="3.327" transform="matrix(0.995, 0.097, -0.097, 0.995, 13.495, 1.918)" fill="#474646"/>
            <rect id="Rectangle_22" data-name="Rectangle 22" width="0.592" height="3.327" transform="matrix(0.995, 0.097, -0.097, 0.995, 15.446, 2.108)" fill="#474646"/>
            <rect id="Rectangle_23" data-name="Rectangle 23" width="0.235" height="3.327" transform="matrix(0.995, 0.097, -0.097, 0.995, 16.398, 2.2)" fill="#474646"/>
            <rect id="Rectangle_24" data-name="Rectangle 24" width="0.912" height="3.327" transform="matrix(0.995, 0.097, -0.097, 0.995, 17.351, 2.293)" fill="#474646"/>
            <rect id="Rectangle_25" data-name="Rectangle 25" width="0.319" height="3.327" transform="matrix(0.995, 0.097, -0.097, 0.995, 18.894, 2.443)" fill="#474646"/>
          </g>
          <g id="Group_13" data-name="Group 13" transform="translate(15.264 53.249)">
            <rect id="Rectangle_26" data-name="Rectangle 26" width="19.89" height="4.636" transform="matrix(0.995, 0.097, -0.097, 0.995, 0.449, 0)" fill="#f7e8d5"/>
            <rect id="Rectangle_27" data-name="Rectangle 27" width="0.416" height="3.327" transform="matrix(0.995, 0.097, -0.097, 0.995, 1.382, 0.74)" fill="#474646"/>
            <rect id="Rectangle_28" data-name="Rectangle 28" width="0.957" height="3.327" transform="matrix(0.995, 0.097, -0.097, 0.995, 2.47, 0.846)" fill="#474646"/>
            <rect id="Rectangle_29" data-name="Rectangle 29" width="0.365" height="3.327" transform="matrix(0.995, 0.097, -0.097, 0.995, 3.968, 0.992)" fill="#474646"/>
            <rect id="Rectangle_30" data-name="Rectangle 30" width="0.388" height="3.327" transform="matrix(0.995, 0.097, -0.097, 0.995, 4.92, 1.084)" fill="#474646"/>
            <rect id="Rectangle_31" data-name="Rectangle 31" width="1.231" height="3.327" transform="matrix(0.995, 0.097, -0.097, 0.995, 6.1, 1.199)" fill="#474646"/>
            <rect id="Rectangle_32" data-name="Rectangle 32" width="0.273" height="3.327" transform="matrix(0.995, 0.097, -0.097, 0.995, 8.051, 1.389)" fill="#474646"/>
            <rect id="Rectangle_33" data-name="Rectangle 33" width="1.641" height="3.327" transform="matrix(0.995, 0.097, -0.097, 0.995, 8.777, 1.459)" fill="#474646"/>
            <rect id="Rectangle_34" data-name="Rectangle 34" width="0.41" height="3.327" transform="matrix(0.995, 0.097, -0.097, 0.995, 10.909, 1.667)" fill="#474646"/>
            <rect id="Rectangle_35" data-name="Rectangle 35" width="0.82" height="3.327" transform="matrix(0.995, 0.097, -0.097, 0.995, 12.225, 1.795)" fill="#474646"/>
            <rect id="Rectangle_36" data-name="Rectangle 36" width="0.442" height="3.327" transform="matrix(0.995, 0.097, -0.097, 0.995, 13.495, 1.918)" fill="#474646"/>
            <rect id="Rectangle_37" data-name="Rectangle 37" width="0.592" height="3.327" transform="matrix(0.995, 0.097, -0.097, 0.995, 15.446, 2.108)" fill="#474646"/>
            <rect id="Rectangle_38" data-name="Rectangle 38" width="0.235" height="3.327" transform="matrix(0.995, 0.097, -0.097, 0.995, 16.398, 2.2)" fill="#474646"/>
            <rect id="Rectangle_39" data-name="Rectangle 39" width="0.912" height="3.327" transform="matrix(0.995, 0.097, -0.097, 0.995, 17.351, 2.293)" fill="#474646"/>
            <rect id="Rectangle_40" data-name="Rectangle 40" width="0.319" height="3.327" transform="matrix(0.995, 0.097, -0.097, 0.995, 18.894, 2.443)" fill="#474646"/>
          </g>
        </g>
        <g id="Group_15" data-name="Group 15" transform="translate(207.792 110.856)">
          <path id="Path_34" data-name="Path 34" d="M646.844,642.463s-25.122-33.43-57.732-38.838c0,0,29.647,41.788,40.281,41.788S646.844,642.463,646.844,642.463Z" transform="translate(-491.924 -574.495)" fill="#d1d1d1"/>
          <path id="Path_35" data-name="Path 35" d="M396.705,604.091c19.467,32.148,60.252,72,74.907,73.414,7.028.678,19.68.972,28.038-8.07,18.242-19.732,31.482-55.18,32.87-74.819.494-6.985-34.431-18.307-38.765-12.2-10.149,14.294-20.842,41.366-22.9,41.427-7.614.225-36.043-19.551-59.228-33.536C384.251,573.79,388.947,591.279,396.705,604.091Z" transform="translate(-377.605 -561.268)" fill="#ffa669"/>
          <path id="Path_36" data-name="Path 36" d="M393,544.929l40.119,32.061,18.392,21.956,5.484-29.14s33.865,33.143,57.732,38.838l-19.2,44.629s-18.839,45.724-66.886,0-68.838-89.185-68.838-89.185l12.662-18.118Z" transform="translate(-359.805 -540.677)" fill="#fff"/>
          <path id="Path_37" data-name="Path 37" d="M671.406,568.244s9.376-3.86,25.058-5.132,22.887-5.934,39.417-21.616c12.8-12.144-19.073-3.814-19.073-3.814s-19.073,3.391-25.854,3.391-52.556-7.629-58.314,14.969C624.794,586.836,671.406,568.244,671.406,568.244Z" transform="translate(-516.491 -534.896)" fill="#ffa669"/>
        </g>
        <path id="Path_38" data-name="Path 38" d="M499.828,507.04s-15.456,6.219-26.8,24.085-19.017,54.2-19.017,54.2-11.664-123.737-6.437-159.571c9.715,19.614,22.522,42.557,32,49.061C497,486.787,499.828,507.04,499.828,507.04Z" transform="translate(-201.805 -361.159)" fill="#4890d6"/>
        <g id="Group_33" data-name="Group 33" transform="translate(118.527 203.963)">
          <rect id="Rectangle_41" data-name="Rectangle 41" width="85.361" height="62.499" rx="8.954" transform="translate(0 60.359) rotate(-45)" fill="#f7d77f"/>
          <rect id="Rectangle_42" data-name="Rectangle 42" width="74.18" height="54.313" rx="2.356" transform="translate(6.038 60.109) rotate(-45)" fill="#fff"/>
          <path id="Path_39" data-name="Path 39" d="M193.437,860.862l-39.409-39.331a3.593,3.593,0,0,1-.362-5l55.36-55.055Z" transform="translate(-151.284 -758.548)" opacity="0.04"/>
          <g id="Group_16" data-name="Group 16" transform="translate(42.95 18.784)">
            <path id="Path_40" data-name="Path 40" d="M259.54,816.92l-9.013-9.013,9.013-9.013,9.013,9.013Zm-8.367-9.013,8.367,8.367,8.366-8.367-8.366-8.366Z" transform="translate(-250.527 -798.894)" fill="#153e49"/>
          </g>
          <g id="Group_17" data-name="Group 17" transform="translate(29.34 32.394)">
            <path id="Path_41" data-name="Path 41" d="M227.429,849.031l-9.013-9.013,9.013-9.012,9.013,9.013Zm-8.366-9.013,8.366,8.367,8.367-8.367-8.367-8.366Z" transform="translate(-218.416 -831.005)" fill="#153e49"/>
          </g>
          <g id="Group_18" data-name="Group 18" transform="translate(15.731 46.003)">
            <path id="Path_42" data-name="Path 42" d="M195.319,881.141l-9.013-9.013,9.012-9.013,9.013,9.013Zm-8.366-9.013,8.366,8.367,8.366-8.367-8.366-8.367Z" transform="translate(-186.306 -863.115)" fill="#153e49"/>
          </g>
          <g id="Group_19" data-name="Group 19" transform="translate(58.423 33.333)">
            <rect id="Rectangle_43" data-name="Rectangle 43" width="1.307" height="26.255" transform="translate(5.682 0.924) rotate(-45)" fill="#e6e6e6"/>
            <rect id="Rectangle_44" data-name="Rectangle 44" width="1.307" height="26.255" transform="translate(2.841 3.765) rotate(-45)" fill="#e6e6e6"/>
            <rect id="Rectangle_45" data-name="Rectangle 45" width="1.307" height="26.255" transform="translate(0 6.607) rotate(-45)" fill="#e6e6e6"/>
          </g>
          <g id="Group_20" data-name="Group 20" transform="translate(44.513 47.244)">
            <rect id="Rectangle_46" data-name="Rectangle 46" width="1.307" height="26.255" transform="translate(5.682 0.924) rotate(-45)" fill="#e6e6e6"/>
            <rect id="Rectangle_47" data-name="Rectangle 47" width="1.307" height="26.255" transform="translate(2.841 3.765) rotate(-45)" fill="#e6e6e6"/>
            <rect id="Rectangle_48" data-name="Rectangle 48" width="1.307" height="26.255" transform="translate(0 6.607) rotate(-45)" fill="#e6e6e6"/>
          </g>
          <g id="Group_21" data-name="Group 21" transform="translate(31.443 60.313)">
            <rect id="Rectangle_49" data-name="Rectangle 49" width="1.307" height="26.255" transform="translate(5.682 0.924) rotate(-45)" fill="#e6e6e6"/>
            <rect id="Rectangle_50" data-name="Rectangle 50" width="1.307" height="26.255" transform="translate(2.841 3.765) rotate(-45)" fill="#e6e6e6"/>
            <rect id="Rectangle_51" data-name="Rectangle 51" width="1.307" height="26.255" transform="translate(0 6.607) rotate(-45)" fill="#e6e6e6"/>
          </g>
          <g id="Group_24" data-name="Group 24" transform="translate(49.641 22.158)">
            <path id="Path_43" data-name="Path 43" d="M280.2,813.173l-11.156-1.7.026-3.485-2.759-.547.7,5.92,13.992,1.222Z" transform="translate(-266.315 -807.191)" opacity="0.22"/>
            <g id="Group_23" data-name="Group 23" transform="translate(0.596)">
              <g id="Group_22" data-name="Group 22">
                <path id="Path_44" data-name="Path 44" d="M268.09,807.252l1.942.385-.026,3.5,11.3,1.723.356.623L268.7,812.35Z" transform="translate(-267.934 -807.083)" fill="#8cad81"/>
                <path id="Path_45" data-name="Path 45" d="M268.362,812.246l-.64-5.392,2.234.443-.026,3.494,11.248,1.716.517.9Zm-.328-5.055L268.6,812l12.6,1.1-.2-.342-11.35-1.731.026-3.5Z" transform="translate(-267.722 -806.854)" fill="#8cad81"/>
              </g>
            </g>
          </g>
          <g id="Group_27" data-name="Group 27" transform="translate(35.014 38.099)">
            <path id="Path_46" data-name="Path 46" d="M245.692,850.783l-11.156-1.7.026-3.485-2.759-.547.7,5.92,13.992,1.222Z" transform="translate(-231.804 -844.802)" opacity="0.22"/>
            <g id="Group_26" data-name="Group 26" transform="translate(0.596)">
              <g id="Group_25" data-name="Group 25">
                <path id="Path_47" data-name="Path 47" d="M233.579,844.862l1.942.385-.026,3.5,11.3,1.723.356.623-12.966-1.132Z" transform="translate(-233.423 -844.694)" fill="#8cad81"/>
                <path id="Path_48" data-name="Path 48" d="M233.851,849.857l-.64-5.392,2.234.443-.026,3.495,11.248,1.715.517.9Zm-.328-5.055.57,4.8,12.6,1.1-.2-.342-11.35-1.731.026-3.5Z" transform="translate(-233.211 -844.465)" fill="#8cad81"/>
              </g>
            </g>
          </g>
          <g id="Group_30" data-name="Group 30" transform="translate(22.475 50.637)">
            <path id="Path_49" data-name="Path 49" d="M216.108,880.367l-11.156-1.7.026-3.485-2.759-.547.7,5.92,13.992,1.222Z" transform="translate(-202.22 -874.386)" opacity="0.22"/>
            <g id="Group_29" data-name="Group 29" transform="translate(0.596)">
              <g id="Group_28" data-name="Group 28">
                <path id="Path_50" data-name="Path 50" d="M204,874.446l1.942.385-.026,3.5,11.3,1.723.356.622L204.6,879.545Z" transform="translate(-203.839 -874.278)" fill="#8cad81"/>
                <path id="Path_51" data-name="Path 51" d="M204.267,879.441l-.64-5.392,2.234.443-.026,3.495,11.248,1.715.517.9Zm-.328-5.055.57,4.805,12.6,1.1-.2-.342-11.35-1.731.026-3.5Z" transform="translate(-203.627 -874.049)" fill="#8cad81"/>
              </g>
            </g>
          </g>
          <g id="Group_32" data-name="Group 32" transform="translate(64.427 8.928)">
            <path id="Path_52" data-name="Path 52" d="M332.926,799.506l-6.568-6.568L327.3,792a7.334,7.334,0,0,0,0-10.372l-.1-.1a7.334,7.334,0,0,0-10.372,0l-.938.938-6.569-6.568a.87.87,0,0,0-1.23,0l-6.627,6.627a.869.869,0,0,0,0,1.23l23.613,23.613a.87.87,0,0,0,1.23,0l6.627-6.627A.869.869,0,0,0,332.926,799.506Zm-11.19-12.423a2.451,2.451,0,1,1,3.466,0A2.45,2.45,0,0,1,321.736,787.083Z" transform="translate(-301.201 -775.638)" fill="#ccc"/>
            <g id="Group_31" data-name="Group 31" transform="translate(0.069 5.38)">
              <rect id="Rectangle_52" data-name="Rectangle 52" width="1.471" height="35.133" transform="translate(0.648 1.04) rotate(-45)" fill="#b3b3b3"/>
              <path id="Path_53" data-name="Path 53" d="M326.011,816.613,301.42,792.021a.194.194,0,0,1,0-.275l.32-.32,24.843,24.843-.344.344A.161.161,0,0,1,326.011,816.613Z" transform="translate(-301.363 -790.115)" fill="#b3b3b3"/>
            </g>
          </g>
        </g>
        <g id="Group_38" data-name="Group 38" transform="translate(0 93.647)">
          <g id="Group_37" data-name="Group 37" transform="translate(17.896 23.073)">
            <path id="Path_54" data-name="Path 54" d="M-4.791,556.246c-46.773,39.73-88.062,92.583-83.031,108.507,5.32,16.838,40.318,33.954,70.442,36.069,6.17.433,22.429-45.593,16.035-47.281-4.981-1.316-27.577-6.305-30.415-9.194-1.973-2.008,31.075-48.078,40.78-74.072C19.177,543.071,7.731,545.609-4.791,556.246Z" transform="translate(88.238 -548.733)" fill="#c36358"/>
            <g id="Group_36" data-name="Group 36" transform="translate(58.495 104.197)">
              <g id="Group_34" data-name="Group 34" transform="translate(0)">
                <path id="Path_55" data-name="Path 55" d="M65.473,794.577s18.8.763,31.07,1.841c6.845.6,18.491,2.678,23.318,5.42,7.22,4.1,34.8,25.866,29.667,32.666-4.647,6.156-12.743-2.663-12.743-2.663s9.754,8.809,3.269,13.5c-6.544,4.732-15.971-7.785-15.971-7.785s11,8.634,3.6,12.979c-6.424,3.772-18.846-9.461-18.846-9.461s12.546,7.8,6.343,12.3c-6.854,4.983-27.972-12.519-27.972-12.519-15.89,2.741-25.8,2.241-37.261-.248C47.847,840.152,65.473,794.577,65.473,794.577Z" transform="translate(-49.775 -794.577)" fill="#ffa669"/>
              </g>
              <g id="Group_35" data-name="Group 35" transform="translate(47.393 20.605)">
                <path id="Path_56" data-name="Path 56" d="M206.978,879.3c-.782-.951-1.589-1.882-2.373-2.832a60.665,60.665,0,0,0-4.808-5.34c-1.692-1.615-3.45-3.146-5.257-4.631-1.909-1.568-3.989-2.949-5.857-4.56a.138.138,0,1,0-.173.213,63.958,63.958,0,0,1,5.306,5.034c1.7,1.68,3.38,3.385,5.057,5.089,1.641,1.667,3.38,3.208,5.066,4.827.84.806,1.645,1.651,2.449,2.492a19.6,19.6,0,0,0,2.345,2.358c.088.065.19-.052.145-.138A15.148,15.148,0,0,0,206.978,879.3Z" transform="translate(-177.067 -853.969)" fill="#1a2e35"/>
                <path id="Path_57" data-name="Path 57" d="M233.522,861.725c-1.007-1.821-7.053-8.5-8.7-10.113a67.053,67.053,0,0,0-10.4-8.4.139.139,0,0,0-.173.213c3.171,3.144,6.394,6.246,9.611,9.348,1.572,1.516,8.5,8.62,9.321,9.273C233.38,862.2,233.631,861.922,233.522,861.725Z" transform="translate(-191.91 -843.192)" fill="#1a2e35"/>
                <path id="Path_58" data-name="Path 58" d="M180.678,895.956a94.537,94.537,0,0,0-8.354-9.36,86,86,0,0,0-10.513-7.364c-.139-.069-.294.113-.173.212,3.3,2.711,6.642,5.356,9.814,8.224,1.545,1.4,7.382,7.321,8.974,8.527C180.57,896.3,180.769,896.1,180.678,895.956Z" transform="translate(-161.594 -863.949)" fill="#1a2e35"/>
              </g>
            </g>
          </g>
          <path id="Path_59" data-name="Path 59" d="M-52.138,521.234s-95.939,93.925-75.455,115.175,78.014,38.814,78.014,38.814,19.336-55.112,29.4-59.186c0,0-32.2-4.754-29.4-6.791S2.663,539.981,2.663,539.981,14.141,520.91-6.678,500.09-52.138,521.234-52.138,521.234Z" transform="translate(130.462 -494.294)" fill="#fff"/>
        </g>
        <path id="Path_60" data-name="Path 60" d="M168.5,355.02a23.809,23.809,0,0,0-5.551,1.467,22.7,22.7,0,0,0-4.247,2.187c-.188.123-.376.25-.561.387a16.774,16.774,0,0,0-7.191,12.879A26.942,26.942,0,0,0,151.39,379c.094.511.2,1.036.33,1.572.264,1.144.594,2.343,1,3.592,2.643,8.158.376,24.665-4.15,43.909-.239,1.024-.485,2.06-.742,3.1-1.6,6.594-3.454,13.462-5.438,20.4q-.331,1.162-.673,2.335c-11.8,40.628-27.945,82.563-27.945,82.563s-.662-31.8-19.042-47.2c-6.141-5.145-14.262-8.461-25-8.146-11.246.329-19.668-1.684-25.968-5.011V429.024c22.141-10.678,59.322-31.232,81.064-57.642A89.419,89.419,0,0,0,135.7,355.02Z" transform="translate(30.081 -320.402)" fill="#4890d6"/>
      </g>
      <ellipse id="Ellipse_2" data-name="Ellipse 2" cx="36.026" cy="2.963" rx="36.026" ry="2.963" transform="translate(339.069 122.48) rotate(-4.92)" opacity="0.15"/>
    </g>
    <g id="Group_61" data-name="Group 61" transform="translate(259.184 65.178)">
      <g id="Group_54" data-name="Group 54" transform="translate(111.986 0)">
        <g id="Group_49" data-name="Group 49" transform="translate(15.755 0)">
          <path id="Path_158" data-name="Path 158" d="M942.142,347.988l-.715,5.387,3.827-2.794,11.712-5.983-9.06.829s-4.615,1.121-4.865,1.347A11.3,11.3,0,0,0,942.142,347.988Z" transform="translate(-938.13 -344.597)" fill="#9ec3f6"/>
          <path id="Path_159" data-name="Path 159" d="M931.755,344.734l18.835-.137-14.824,3.391Z" transform="translate(-931.755 -344.597)" fill="#fff"/>
          <path id="Path_160" data-name="Path 160" d="M951.744,353.407l-4.935-3.964,13.7-4.846Z" transform="translate(-941.677 -344.597)" fill="#fff"/>
        </g>
        <g id="Group_53" data-name="Group 53" transform="translate(0 5.532)">
          <g id="Group_50" data-name="Group 50" transform="translate(15.32)">
            <path id="Path_161" data-name="Path 161" d="M930.6,361.492a5.711,5.711,0,0,1,1.257-.33l-.036-.334a5.954,5.954,0,0,0-1.34.35Z" transform="translate(-930.48 -360.827)" fill="#fff"/>
          </g>
          <g id="Group_51" data-name="Group 51" transform="translate(3.569 1.712)">
            <path id="Path_162" data-name="Path 162" d="M896.006,394.806a21.176,21.176,0,0,0,2.181-1.265l.186.28a21.567,21.567,0,0,1-2.215,1.286ZM900.171,392a13.687,13.687,0,0,0,1.693-1.851l.268.2a13.983,13.983,0,0,1-1.734,1.9ZM903.164,388c.165-.346.317-.707.451-1.072a13.433,13.433,0,0,0,.4-1.285l.326.084c-.116.45-.254.893-.41,1.317-.138.375-.294.745-.463,1.1Zm1.358-7.356.336-.008a21.783,21.783,0,0,1-.083,2.56l-.335-.032A21.515,21.515,0,0,0,904.522,380.649Zm-.478-5.041.333-.048c.141.984.241,1.789.316,2.531l-.335.034C904.284,377.387,904.184,376.587,904.044,375.607Zm-.377-2.533a12.378,12.378,0,0,1-.127-2.553l.336.021a12.027,12.027,0,0,0,.124,2.482l0,.02-.333.046Zm.423-5.081a6.116,6.116,0,0,1,1.46-2.145l.231.244a5.774,5.774,0,0,0-1.38,2.028Z" transform="translate(-896.006 -365.849)" fill="#fff"/>
          </g>
          <g id="Group_52" data-name="Group 52" transform="translate(0 31.701)">
            <path id="Path_163" data-name="Path 163" d="M885.645,454.612c.433-.15.86-.308,1.268-.469l-.123-.313c-.4.159-.826.315-1.255.464Z" transform="translate(-885.535 -453.83)" fill="#fff"/>
          </g>
        </g>
      </g>
      <g id="Group_60" data-name="Group 60" transform="translate(0 26.454)">
        <g id="Group_58" data-name="Group 58" transform="translate(11.047 10.221)">
          <g id="Group_55" data-name="Group 55" transform="translate(2.681)">
            <path id="Path_164" data-name="Path 164" d="M598.256,453.155a5.233,5.233,0,0,0-.981-.685l.137-.278a5.485,5.485,0,0,1,1.046.728Z" transform="translate(-597.275 -452.192)" fill="#fff"/>
          </g>
          <g id="Group_56" data-name="Group 56" transform="translate(0 2.606)">
            <path id="Path_165" data-name="Path 165" d="M593.563,488.1a19.832,19.832,0,0,1-1.505-1.814l.25-.182a19.538,19.538,0,0,0,1.482,1.786Zm-2.753-3.819a12.846,12.846,0,0,1-.9-2.189l.3-.09a12.573,12.573,0,0,0,.874,2.136Zm-1.35-4.513c-.033-.361-.05-.73-.05-1.1a12.663,12.663,0,0,1,.064-1.268l.308.031c-.042.415-.063.832-.063,1.237,0,.359.016.719.049,1.07Zm.742-4.611-.3-.079a20.024,20.024,0,0,1,.742-2.238l.288.113A19.661,19.661,0,0,0,590.2,475.153Zm1.675-4.333-.278-.135c.3-.618.643-1.28,1.077-2.086l.273.147C592.515,469.548,592.174,470.207,591.875,470.821Zm2.2-4.13-.273-.145.009-.016a11.1,11.1,0,0,0,.9-2.105l.3.089a11.383,11.383,0,0,1-.921,2.165Zm.947-4.525a5.312,5.312,0,0,0-.547-2.19l.278-.138a5.63,5.63,0,0,1,.58,2.317Z" transform="translate(-589.409 -459.838)" fill="#fff"/>
          </g>
          <g id="Group_57" data-name="Group 57" transform="translate(5.845 32.282)">
            <path id="Path_166" data-name="Path 166" d="M607.5,547.937c-.326-.267-.645-.539-.947-.808l.206-.231c.3.266.614.535.937.8Z" transform="translate(-606.556 -546.898)" fill="#fff"/>
          </g>
        </g>
        <g id="Group_59" data-name="Group 59" transform="translate(0 0)">
          <path id="Path_167" data-name="Path 167" d="M569.671,428.152l-.41,4.986-2.9-3.261L557,422.206l7.987,2.516s3.932,1.91,4.113,2.162A10.294,10.294,0,0,1,569.671,428.152Z" transform="translate(-557 -422.206)" fill="#9ec3f6"/>
          <path id="Path_168" data-name="Path 168" d="M573.915,426.01,557,422.206l12.671,5.947Z" transform="translate(-557 -422.206)" fill="#fff"/>
          <path id="Path_169" data-name="Path 169" d="M563.166,431.844l5.214-2.6L557,422.206Z" transform="translate(-557 -422.206)" fill="#fff"/>
        </g>
      </g>
    </g>
    <g id="Group_66" data-name="Group 66" transform="translate(-15.553 -4.553)">
      <g transform="matrix(1, 0, 0, 1, -25.66, 38.55)" filter="url(#Ellipse_11)">
        <circle id="Ellipse_11-2" data-name="Ellipse 11" cx="16.5" cy="16.5" r="16.5" transform="translate(308.21 6)" fill="url(#linear-gradient-3)"/>
      </g>
      <g id="Group_64" data-name="Group 64" transform="translate(289.388 51.38)">
        <path id="Path_191" data-name="Path 191" d="M645.2,555.255c0,1.629.08,3.263-.019,4.886a4.8,4.8,0,0,1-4.694,4.681c-2.108.117-4.226.07-6.34.075-1.162,0-2.328.018-3.485-.066a4.8,4.8,0,0,1-4.68-4.7c-.125-2.8-.066-5.611-.079-8.417,0-.467.02-.935.059-1.4a4.895,4.895,0,0,1,4.71-4.688c1.187-.086,2.384-.069,3.576-.066,2.083.005,4.171-.041,6.249.075a4.794,4.794,0,0,1,4.685,4.689C645.279,551.962,645.2,553.611,645.2,555.255Zm-6.789,4.427c.8,0,1.6,0,2.4,0,.551,0,.855-.259.858-.707s-.306-.733-.843-.736q-2.4-.01-4.8,0c-.523,0-.865.3-.871.721s.329.719.856.722C636.808,559.686,637.608,559.683,638.408,559.683Zm.031-8.2c-.815,0-1.63-.006-2.445,0-.507,0-.827.278-.843.692a.754.754,0,0,0,.84.748q2.422.012,4.844,0c.536,0,.841-.293.829-.745-.011-.432-.305-.689-.827-.695C640.039,551.48,639.239,551.486,638.44,551.486Zm-7.494,7.184c-.09-.08-.135-.12-.18-.159a.726.726,0,1,0-1,1.04c.177.185.36.366.544.544a.757.757,0,0,0,1.248-.01q.966-.954,1.921-1.919c.408-.411.455-.828.138-1.149s-.743-.291-1.15.114C631.965,557.631,631.471,558.138,630.946,558.671Zm.01-6.758c-.107-.1-.16-.148-.218-.2a.742.742,0,0,0-1.055-.01.73.73,0,0,0,.078,1.08c.187.2.38.388.576.575a.744.744,0,0,0,1.181-.008q1-.983,1.984-1.982c.385-.389.425-.8.121-1.115a.769.769,0,0,0-1.151.106C631.972,550.865,631.482,551.375,630.956,551.913Z" transform="translate(-625.898 -545.555)" fill="#115598"/>
      </g>
    </g>
    <g id="Group_67" data-name="Group 67" transform="translate(28.267 -18.493)">
      <g transform="matrix(1, 0, 0, 1, -69.48, 52.49)" filter="url(#Ellipse_12)">
        <circle id="Ellipse_12-2" data-name="Ellipse 12" cx="14" cy="14" r="14" transform="translate(416.21 172)" fill="url(#linear-gradient-3)"/>
      </g>
      <g id="Group_65" data-name="Group 65" transform="translate(352.494 230.663)">
        <path id="Path_192" data-name="Path 192" d="M698.26,556.613c0-.46-.006-.849,0-1.238a.77.77,0,0,1,.844-.841q4.6-.008,9.208,0a.785.785,0,0,1,.84.855c.01.388,0,.777,0,1.224.254,0,.48-.006.705,0a.781.781,0,0,1,.852.8q.5,6.008,1,12.015a1.819,1.819,0,0,1-.079.782.742.742,0,0,1-.786.411c-1.437-.007-2.875,0-4.312,0h-9.83c-.8,0-1.087-.336-1.019-1.134.212-2.475.412-4.952.616-7.428.127-1.541.249-3.083.384-4.624.05-.573.327-.812.911-.822C697.8,556.61,698.008,556.613,698.26,556.613Zm1.556,3.992-.056.009c.124.78.2,1.571.381,2.339a5.747,5.747,0,0,0,1.618,3.053,2.34,2.34,0,0,0,3.355,0,5.58,5.58,0,0,0,.981-1.3,8.9,8.9,0,0,0,.957-3.609.948.948,0,0,1,.128-.4.79.79,0,0,0-.687-1.256c-.66-.012-.961.278-.974.941a8.039,8.039,0,0,1-.663,3.307,4.763,4.763,0,0,1-.818,1.192.756.756,0,0,1-1.169.02,3.447,3.447,0,0,1-.668-.857,7.253,7.253,0,0,1-.8-3.087.558.558,0,0,1,.072-.27.793.793,0,0,0-.048-.981,1.032,1.032,0,0,0-1.087-.212.757.757,0,0,0-.526.79C699.817,560.385,699.816,560.495,699.816,560.6Zm3.867-2.432c.827,0,1.654,0,2.481,0,.559,0,.9-.3.9-.78s-.326-.773-.9-.775q-2.463-.006-4.926,0c-.566,0-.908.3-.908.774a.8.8,0,0,0,.907.781C702.053,558.175,702.867,558.173,703.682,558.173Z" transform="translate(-695.68 -554.529)" fill="#115598"/>
      </g>
    </g>
  </g>
</svg>
