<svg xmlns="http://www.w3.org/2000/svg" width="24" height="24" viewBox="0 0 24 24">
  <path id="arrow-right" d="M-2976-1071h-.036a1.493,1.493,0,0,1-.627-.154h0l-.028-.014h-.007l-.023-.012-.015-.009-.014-.008-.021-.013h-.008l-.025-.016h0l-.028-.019h0a1.5,1.5,0,0,1-.128-.1h0l-.02-.017-.009-.008-.017-.016-.011-.01-.017-.016-.011-.01-.008-.008-10.5-10.5a1.5,1.5,0,0,1,0-2.121,1.5,1.5,0,0,1,2.121,0l7.94,7.94V-1093.5a1.5,1.5,0,0,1,1.5-1.5,1.5,1.5,0,0,1,1.5,1.5v17.378l7.94-7.939a1.5,1.5,0,0,1,2.12,0,1.5,1.5,0,0,1,0,2.121l-10.5,10.5a1.506,1.506,0,0,1-.409.291h0l-.025.011-.017.008-.013.006-.027.011h0a1.493,1.493,0,0,1-.491.108H-2976Z" transform="translate(1095 -2963.993) rotate(-90)" fill="#115598"/>
</svg>
