<svg xmlns="http://www.w3.org/2000/svg" xmlns:xlink="http://www.w3.org/1999/xlink" width="235" height="97" viewBox="0 0 235 97">
  <defs>
    <clipPath id="clip-path">
      <rect id="Rectangle_657" data-name="Rectangle 657" width="235" height="97" transform="translate(162 23)" fill="#fff"/>
    </clipPath>
  </defs>
  <g id="Mask_Group_2" data-name="Mask Group 2" transform="translate(-162 -23)" clip-path="url(#clip-path)">
    <g id="Group_345" data-name="Group 345">
      <g id="Group_344" data-name="Group 344">
        <g id="Group_89" data-name="Group 89" transform="translate(-546 609.613)">
          <rect id="Rectangle_58" data-name="Rectangle 58" width="94.73" height="178.324" rx="12.116" transform="translate(806.317 -582.64)" fill="#161616"/>
          <rect id="Rectangle_75" data-name="Rectangle 75" width="92.789" height="176.233" rx="12.116" transform="translate(807.288 -581.595)" fill="#606060" opacity="0.3"/>
          <g id="Group_68" data-name="Group 68" transform="translate(-2825.48 -1233.906)">
            <path id="Path_195" data-name="Path 195" d="M3721.833,664.925V814.737a9.233,9.233,0,0,1-9.172,9.239h-67a9.232,9.232,0,0,1-9.17-9.239V664.925a9.233,9.233,0,0,1,9.17-9.24h67A9.234,9.234,0,0,1,3721.833,664.925Z" fill="#fff"/>
          </g>
          <path id="Rectangle_59" data-name="Rectangle 59" d="M0,0H36.3a0,0,0,0,1,0,0V6.346a2.6,2.6,0,0,1-2.6,2.6H2.6A2.6,2.6,0,0,1,0,6.346V0A0,0,0,0,1,0,0Z" transform="translate(835.535 -581.595)" fill="#161616"/>
          <g id="Group_85" data-name="Group 85" transform="translate(-2825.48 -1233.906)">
            <path id="Path_215" data-name="Path 215" d="M3649.413,665.057l-.955.685-.96-.678a1.176,1.176,0,0,1,1.915-.007Z" fill="#115598"/>
            <g id="Group_82" data-name="Group 82">
              <path id="Path_216" data-name="Path 216" d="M3648.458,662.9a2.834,2.834,0,0,0-2.322,1.208l.6.425a2.1,2.1,0,0,1,3.424-.013l.6-.433A2.841,2.841,0,0,0,3648.458,662.9Z" fill="#115598"/>
            </g>
            <g id="Group_83" data-name="Group 83">
              <path id="Path_217" data-name="Path 217" d="M3648.458,659.723a6,6,0,0,0-4.915,2.554l.607.425a5.269,5.269,0,0,1,8.594-.032l.6-.433A6,6,0,0,0,3648.458,659.723Z" fill="#115598"/>
            </g>
            <g id="Group_84" data-name="Group 84">
              <path id="Path_218" data-name="Path 218" d="M3648.458,661.461a4.293,4.293,0,0,0-3.5,1.81l.6.425a3.563,3.563,0,0,1,5.783-.023l.6-.43A4.291,4.291,0,0,0,3648.458,661.461Z" fill="#115598"/>
            </g>
          </g>
        </g>
        <g id="Group_99" data-name="Group 99" transform="translate(-30 58)">
          <rect id="Rectangle_76" data-name="Rectangle 76" width="78" height="25" rx="5" transform="translate(299 50)" fill="#115598" opacity="0.09"/>
          <g id="Group_96" data-name="Group 96" transform="translate(2.38 3.38)">
            <circle id="Ellipse_13" data-name="Ellipse 13" cx="9" cy="9" r="9" transform="translate(300.62 49.62)" fill="#115598" opacity="0.5"/>
            <g id="Group_94" data-name="Group 94" transform="translate(305.618 54.606)">
              <path id="Path_225" data-name="Path 225" d="M696.967,555.569c0-.229,0-.423,0-.618a.385.385,0,0,1,.421-.42q2.3,0,4.594,0a.391.391,0,0,1,.419.426c.005.194,0,.387,0,.611.127,0,.239,0,.352,0a.389.389,0,0,1,.425.4q.251,3,.5,5.995a.906.906,0,0,1-.039.39.37.37,0,0,1-.392.205c-.717,0-1.434,0-2.151,0h-4.9c-.4,0-.542-.168-.508-.565.106-1.235.205-2.471.307-3.706.063-.769.124-1.538.191-2.307.025-.286.163-.4.454-.41C696.74,555.567,696.842,555.569,696.967,555.569Zm.776,1.992-.028,0c.062.389.1.784.19,1.167a2.868,2.868,0,0,0,.807,1.523,1.168,1.168,0,0,0,1.674,0,2.788,2.788,0,0,0,.489-.651,4.438,4.438,0,0,0,.477-1.8.474.474,0,0,1,.064-.2.394.394,0,0,0-.343-.627c-.329-.006-.479.139-.486.47a4.01,4.01,0,0,1-.331,1.65,2.378,2.378,0,0,1-.408.595.377.377,0,0,1-.583.01,1.72,1.72,0,0,1-.333-.427,3.62,3.62,0,0,1-.4-1.54.279.279,0,0,1,.036-.135.4.4,0,0,0-.024-.489.515.515,0,0,0-.542-.106.378.378,0,0,0-.263.394C697.744,557.451,697.744,557.506,697.744,557.56Zm1.929-1.213c.413,0,.825,0,1.238,0,.279,0,.449-.151.45-.389s-.162-.386-.449-.387q-1.229,0-2.457,0c-.282,0-.453.15-.453.386a.4.4,0,0,0,.452.39C698.86,556.348,699.266,556.347,699.673,556.347Z" transform="translate(-695.68 -554.529)" fill="#fff"/>
            </g>
          </g>
          <line id="Line_6" data-name="Line 6" x2="19.796" transform="translate(327.704 57.5)" fill="none" stroke="#115598" stroke-linecap="round" stroke-width="5" opacity="0.5"/>
          <line id="Line_7" data-name="Line 7" x2="42.796" transform="translate(327.704 66.5)" fill="none" stroke="#115598" stroke-linecap="round" stroke-width="5"/>
        </g>
        <g id="Group_97" data-name="Group 97" transform="translate(-30)">
          <rect id="Rectangle_76-2" data-name="Rectangle 76" width="78" height="25" rx="5" transform="translate(299 50)" fill="#115598" opacity="0.09"/>
          <g id="Group_96-2" data-name="Group 96" transform="translate(2.38 3.38)">
            <circle id="Ellipse_13-2" data-name="Ellipse 13" cx="9" cy="9" r="9" transform="translate(300.62 49.62)" fill="#115598" opacity="0.5"/>
            <g id="Group_94-2" data-name="Group 94" transform="translate(305.618 54.606)">
              <path id="Path_225-2" data-name="Path 225" d="M696.967,555.569c0-.229,0-.423,0-.618a.385.385,0,0,1,.421-.42q2.3,0,4.594,0a.391.391,0,0,1,.419.426c.005.194,0,.387,0,.611.127,0,.239,0,.352,0a.389.389,0,0,1,.425.4q.251,3,.5,5.995a.906.906,0,0,1-.039.39.37.37,0,0,1-.392.205c-.717,0-1.434,0-2.151,0h-4.9c-.4,0-.542-.168-.508-.565.106-1.235.205-2.471.307-3.706.063-.769.124-1.538.191-2.307.025-.286.163-.4.454-.41C696.74,555.567,696.842,555.569,696.967,555.569Zm.776,1.992-.028,0c.062.389.1.784.19,1.167a2.868,2.868,0,0,0,.807,1.523,1.168,1.168,0,0,0,1.674,0,2.788,2.788,0,0,0,.489-.651,4.438,4.438,0,0,0,.477-1.8.474.474,0,0,1,.064-.2.394.394,0,0,0-.343-.627c-.329-.006-.479.139-.486.47a4.01,4.01,0,0,1-.331,1.65,2.378,2.378,0,0,1-.408.595.377.377,0,0,1-.583.01,1.72,1.72,0,0,1-.333-.427,3.62,3.62,0,0,1-.4-1.54.279.279,0,0,1,.036-.135.4.4,0,0,0-.024-.489.515.515,0,0,0-.542-.106.378.378,0,0,0-.263.394C697.744,557.451,697.744,557.506,697.744,557.56Zm1.929-1.213c.413,0,.825,0,1.238,0,.279,0,.449-.151.45-.389s-.162-.386-.449-.387q-1.229,0-2.457,0c-.282,0-.453.15-.453.386a.4.4,0,0,0,.452.39C698.86,556.348,699.266,556.347,699.673,556.347Z" transform="translate(-695.68 -554.529)" fill="#fff"/>
            </g>
          </g>
          <line id="Line_6-2" data-name="Line 6" x2="19.796" transform="translate(327.704 57.5)" fill="none" stroke="#115598" stroke-linecap="round" stroke-width="5" opacity="0.5"/>
          <line id="Line_7-2" data-name="Line 7" x2="42.796" transform="translate(327.704 66.5)" fill="none" stroke="#115598" stroke-linecap="round" stroke-width="5" opacity="0.5"/>
        </g>
        <g id="Group_98" data-name="Group 98" transform="translate(-30 29)">
          <rect id="Rectangle_76-3" data-name="Rectangle 76" width="78" height="25" rx="5" transform="translate(299 50)" fill="#115598" opacity="0.09"/>
          <g id="Group_96-3" data-name="Group 96" transform="translate(2.38 3.38)">
            <circle id="Ellipse_13-3" data-name="Ellipse 13" cx="9" cy="9" r="9" transform="translate(300.62 49.62)" fill="#115598" opacity="0.5"/>
            <g id="Group_94-3" data-name="Group 94" transform="translate(305.618 54.606)">
              <path id="Path_225-3" data-name="Path 225" d="M696.967,555.569c0-.229,0-.423,0-.618a.385.385,0,0,1,.421-.42q2.3,0,4.594,0a.391.391,0,0,1,.419.426c.005.194,0,.387,0,.611.127,0,.239,0,.352,0a.389.389,0,0,1,.425.4q.251,3,.5,5.995a.906.906,0,0,1-.039.39.37.37,0,0,1-.392.205c-.717,0-1.434,0-2.151,0h-4.9c-.4,0-.542-.168-.508-.565.106-1.235.205-2.471.307-3.706.063-.769.124-1.538.191-2.307.025-.286.163-.4.454-.41C696.74,555.567,696.842,555.569,696.967,555.569Zm.776,1.992-.028,0c.062.389.1.784.19,1.167a2.868,2.868,0,0,0,.807,1.523,1.168,1.168,0,0,0,1.674,0,2.788,2.788,0,0,0,.489-.651,4.438,4.438,0,0,0,.477-1.8.474.474,0,0,1,.064-.2.394.394,0,0,0-.343-.627c-.329-.006-.479.139-.486.47a4.01,4.01,0,0,1-.331,1.65,2.378,2.378,0,0,1-.408.595.377.377,0,0,1-.583.01,1.72,1.72,0,0,1-.333-.427,3.62,3.62,0,0,1-.4-1.54.279.279,0,0,1,.036-.135.4.4,0,0,0-.024-.489.515.515,0,0,0-.542-.106.378.378,0,0,0-.263.394C697.744,557.451,697.744,557.506,697.744,557.56Zm1.929-1.213c.413,0,.825,0,1.238,0,.279,0,.449-.151.45-.389s-.162-.386-.449-.387q-1.229,0-2.457,0c-.282,0-.453.15-.453.386a.4.4,0,0,0,.452.39C698.86,556.348,699.266,556.347,699.673,556.347Z" transform="translate(-695.68 -554.529)" fill="#fff"/>
            </g>
          </g>
          <line id="Line_6-3" data-name="Line 6" x2="19.796" transform="translate(327.704 57.5)" fill="none" stroke="#115598" stroke-linecap="round" stroke-width="5" opacity="0.5"/>
          <line id="Line_7-3" data-name="Line 7" x2="42.796" transform="translate(327.704 66.5)" fill="none" stroke="#115598" stroke-linecap="round" stroke-width="5" opacity="0.5"/>
        </g>
      </g>
      <g id="Group_60" data-name="Group 60" transform="translate(161.792 53.145) rotate(-41)">
        <g id="Group_58" data-name="Group 58" transform="translate(24.436 22.609)">
          <g id="Group_55" data-name="Group 55" transform="translate(5.931)">
            <path id="Path_164" data-name="Path 164" d="M599.446,454.321a11.584,11.584,0,0,0-2.171-1.515l.3-.614a12.135,12.135,0,0,1,2.315,1.611Z" transform="translate(-597.275 -452.192)" fill="#fff"/>
          </g>
          <g id="Group_56" data-name="Group 56" transform="translate(0 5.765)">
            <path id="Path_165" data-name="Path 165" d="M598.6,522.346a43.879,43.879,0,0,1-3.329-4.013l.553-.4a43.208,43.208,0,0,0,3.278,3.951Zm-6.091-8.448a28.411,28.411,0,0,1-1.981-4.843l.655-.2a27.814,27.814,0,0,0,1.933,4.726Zm-2.986-9.983c-.074-.8-.111-1.615-.111-2.429a28,28,0,0,1,.143-2.806l.681.069c-.092.919-.139,1.84-.139,2.737,0,.793.036,1.589.108,2.367Zm1.641-10.2-.662-.175a44.275,44.275,0,0,1,1.641-4.951l.637.251A43.47,43.47,0,0,0,591.16,493.716Zm3.7-9.584-.615-.3c.665-1.366,1.423-2.832,2.383-4.614l.6.325C596.279,481.317,595.526,482.774,594.865,484.132ZM599.721,475l-.6-.321.02-.035a24.565,24.565,0,0,0,1.982-4.657l.656.2a25.188,25.188,0,0,1-2.038,4.789Zm2.094-10.008a11.751,11.751,0,0,0-1.211-4.845l.614-.3a12.456,12.456,0,0,1,1.282,5.126Z" transform="translate(-589.409 -459.838)" fill="#fff"/>
          </g>
          <g id="Group_57" data-name="Group 57" transform="translate(12.929 71.407)">
            <path id="Path_166" data-name="Path 166" d="M608.65,549.2c-.722-.591-1.426-1.193-2.094-1.788l.456-.511c.66.589,1.357,1.184,2.072,1.77Z" transform="translate(-606.556 -546.898)" fill="#fff"/>
          </g>
        </g>
        <g id="Group_59" data-name="Group 59" transform="translate(0 0)">
          <path id="Path_167" data-name="Path 167" d="M585.029,435.359l-.906,11.028-6.405-7.214L557,422.206l17.667,5.566s8.7,4.225,9.1,4.783A22.772,22.772,0,0,1,585.029,435.359Z" transform="translate(-557 -422.206)" fill="#9ec3f6"/>
          <path id="Path_168" data-name="Path 168" d="M594.417,430.621,557,422.206l28.029,13.154Z" transform="translate(-557 -422.206)" fill="#fff"/>
          <path id="Path_169" data-name="Path 169" d="M570.639,443.526l11.533-5.754L557,422.206Z" transform="translate(-557 -422.206)" fill="#fff"/>
        </g>
      </g>
      <g id="Group_95" data-name="Group 95" transform="translate(-1704.572 -342.339)">
        <path id="Path_226" data-name="Path 226" d="M2084.909,491.763c.007,4.677.065,9.355,0,14.031a5.116,5.116,0,0,1-5.168,4.94c-4.481.041-8.962.015-13.443.015-8.666,0-17.333-.093-26,.042a5.626,5.626,0,0,1-6.024-5.987c.158-4.342.058-8.694.068-13.042.48-.485,1.1-.369,1.681-.369q10.072-.014,20.143-.006,13.478,0,26.957.006C2083.739,491.4,2084.4,491.256,2084.909,491.763Z" transform="translate(0 -58.265)" fill="#2195f2"/>
        <path id="Path_227" data-name="Path 227" d="M2085.2,458.14h-50.56q0-4.188,0-8.377a1.827,1.827,0,0,1,1.317-.3q23.962-.011,47.926,0a1.827,1.827,0,0,1,1.317.3Q2085.2,453.951,2085.2,458.14Z" transform="translate(-0.293 -24.641)" fill="#455a64"/>
        <path id="Path_228" data-name="Path 228" d="M2085.149,425.121H2034.59c-.163-3.253,1.217-5.433,3.9-6.175a7.6,7.6,0,0,1,2.061-.155c12.882,0,25.764.071,38.646-.048C2082.984,418.709,2085.625,421.441,2085.149,425.121Z" transform="translate(-0.241)" fill="#2195f2"/>
        <path id="Path_229" data-name="Path 229" d="M2074.993,548.932c-2.3,0-4.607-.008-6.911,0-.761,0-1.466-.119-1.458-1.046s.725-1.027,1.479-1.025q6.961.013,13.921,0c.717,0,1.375.1,1.4.995.023.957-.652,1.078-1.416,1.075C2079.666,548.926,2077.33,548.932,2074.993,548.932Z" transform="translate(-25.948 -102.774)" fill="#f9f9f9"/>
        <path id="Path_230" data-name="Path 230" d="M2071.917,527.463c-1.317,0-2.634-.01-3.951,0-.756.008-1.357-.233-1.361-1.064s.632-1.07,1.365-1.07c2.6,0,5.2-.007,7.8,0,.736,0,1.336.257,1.3,1.123-.032.8-.6,1.01-1.306,1.006C2074.485,527.458,2073.2,527.463,2071.917,527.463Z" transform="translate(-25.933 -85.5)" fill="#f8f8f9"/>
      </g>
      <g id="Group_107" data-name="Group 107" transform="translate(371 41.377)">
        <g id="Group_106" data-name="Group 106">
          <path id="Path_236" data-name="Path 236" d="M431.747,322.983l15.907,2.269-10.556-7.2-.537,2.307-3.868.7Z" transform="translate(-421.443 -314.007)" fill="#9ec3f6"/>
          <path id="Path_237" data-name="Path 237" d="M457.959,322.518l-13.237-6.825-12.974-.653Z" transform="translate(-431.747 -311.273)" fill="#fff"/>
          <path id="Path_238" data-name="Path 238" d="M431.747,278.863l10.556,7.2-8.172-11.245Z" transform="translate(-416.092 -274.813)" fill="#fff"/>
        </g>
      </g>
      <path id="Icon_material-location-on" data-name="Icon material-location-on" d="M18,3A10.492,10.492,0,0,0,7.5,13.5C7.5,21.375,18,33,18,33S28.5,21.375,28.5,13.5A10.492,10.492,0,0,0,18,3Zm0,14.25a3.75,3.75,0,1,1,3.75-3.75A3.751,3.751,0,0,1,18,17.25Z" transform="translate(222.5 20)" fill="red"/>
    </g>
  </g>
</svg>
