<svg xmlns="http://www.w3.org/2000/svg" xmlns:xlink="http://www.w3.org/1999/xlink" width="313.863" height="224.652" viewBox="0 0 313.863 224.652">
  <defs>
    <clipPath id="clip-path">
      <path id="Path_386" data-name="Path 386" d="M391.331,283.525c-5.031-14.025-12.953-18.293-20.487-27.289-9.2-10.987-15.409-18.974-13.02-33.106,3.9-23.092,5.576-80.685-55.559-73.156-21.913,2.7-39.228,19.49-51.825,36.251-10.719,14.263-30,15.521-45.52,18.846-19.068,4.086-38.493,10.257-56.135,19.3-36.335,18.623-47.187,45.4-45.705,79.649.448,10.349,1.912,26.65,19.394,45.724,23.6,25.745,57.882,29.193,99.15,17.369,9.446-2.706,18.375-6.951,27.667-10.146a130.592,130.592,0,0,1,29.86-6.484c23.7-2.292,48.271,1.853,71.008-5.223a74.924,74.924,0,0,0,31.758-19.7C392.777,314.188,396.64,298.328,391.331,283.525Z" fill="none"/>
    </clipPath>
    <linearGradient id="linear-gradient" x1="-0.725" y1="0.562" x2="0.626" y2="0.386" gradientUnits="objectBoundingBox">
      <stop offset="0.473" stop-color="#fff"/>
      <stop offset="0.605" stop-color="#fcfcfc"/>
      <stop offset="0.667" stop-color="#f5f5f5"/>
      <stop offset="0.716" stop-color="#e8e8e8"/>
      <stop offset="0.756" stop-color="#d5d5d5"/>
      <stop offset="0.793" stop-color="#bdbdbd"/>
      <stop offset="0.825" stop-color="#a0a0a0"/>
      <stop offset="0.856" stop-color="#7d7d7d"/>
      <stop offset="0.884" stop-color="#545454"/>
      <stop offset="0.91" stop-color="#272727"/>
      <stop offset="0.929"/>
    </linearGradient>
  </defs>
  <g id="Group_347" data-name="Group 347" transform="translate(-4391 -1292.34)">
    <path id="Path_383" data-name="Path 383" d="M430.622,313.535c-5.038-14.046-12.971-18.321-20.517-27.33-9.216-11-15.432-19-13.039-33.156,3.909-23.128,5.585-80.806-55.643-73.267-21.944,2.7-39.286,19.52-51.9,36.307-10.734,14.283-30.044,15.543-45.588,18.874-19.1,4.091-38.551,10.272-56.219,19.328-36.39,18.651-47.258,45.463-45.774,79.768.449,10.364,1.915,26.69,19.423,45.793,23.63,25.783,57.969,29.235,99.3,17.395,9.46-2.71,18.4-6.961,27.709-10.163a130.824,130.824,0,0,1,29.9-6.493c23.738-2.294,48.344,1.857,71.114-5.231A75.032,75.032,0,0,0,421.2,355.636C432.071,344.243,435.94,328.36,430.622,313.535Z" transform="translate(4249.191 1113.232)" fill="#e2f6ff"/>
    <path id="Path_384" data-name="Path 384" d="M290.521,203.733c-.2.854-.381,1.84-.539,2.97l3,52.334L247.8,257.394l1.356-63.722,29.7-10.957S295.608,181.611,290.521,203.733Z" transform="translate(4288.051 1143.213)" fill="#11446d"/>
    <g id="Group_217" data-name="Group 217" transform="translate(4288.051 1143.213)">
      <g id="Group_216" data-name="Group 216" clip-path="url(#clip-path)">
        <path id="Path_385" data-name="Path 385" d="M144.4,455.142H330.32V368.05c0-.323.008-.645.008-.969,0-78.6-41.62-142.311-92.961-142.311s-70.773,89.807-53.308,150.757Z" fill="#fff"/>
      </g>
    </g>
    <path id="Path_387" data-name="Path 387" d="M277.555,176.678l15.176,5.615a7.826,7.826,0,0,1,2.631,13.052L282.375,207.5Z" transform="translate(4288.051 1143.213)" fill="#115598"/>
    <path id="Path_388" data-name="Path 388" d="M246.526,269.279,211.532,242.74l19.431-64.983,38.982,8.56Z" transform="translate(4288.051 1143.213)" fill="#f88f62"/>
    <path id="Path_389" data-name="Path 389" d="M281.614,182.85v.988a24.413,24.413,0,0,1-.585,4.919,25.693,25.693,0,0,1-27.922,19.979c-.867-.1-1.734-.262-2.6-.443a25.682,25.682,0,0,1-19.535-30.543,25.623,25.623,0,0,1,38.97-16.007l1.331.927.2.141a25.671,25.671,0,0,1,10.105,20.037Z" transform="translate(4288.051 1143.213)" fill="#ffa669"/>
    <path id="Path_390" data-name="Path 390" d="M281.715,214.059a6.291,6.291,0,0,1-.041.887,12.594,12.594,0,0,1-14.9,11.229l-19.717-4.314L246.373,207l-1.189-25.987,3.669.181,32.761,1.653v.988Z" transform="translate(4288.051 1143.213)" fill="#ffa669"/>
    <path id="Path_391" data-name="Path 391" d="M281.715,214.059a6.291,6.291,0,0,1-.041.887c-3.911,5.443-9.011,8.548-15.584,6.209-6.31-2.238-10.382-6.935-12.983-12.419-4.536-9.576-4.6-21.612-4.254-27.539.1-2.278.282-3.649.282-3.649l20.806-15.805,1.331.927.2.141a25.671,25.671,0,0,1,10.105,20.037l.036,0v.988Z" transform="translate(4288.051 1143.213)" fill="#ffa669"/>
    <path id="Path_392" data-name="Path 392" d="M270.758,223.665a1.006,1.006,0,0,1-.909-1.094q-.311-1.631-.622-3.26l3.659.213-1.033,3.232A1.006,1.006,0,0,1,270.758,223.665Z" transform="translate(4288.051 1143.213)" fill="#2c2334"/>
    <path id="Path_393" data-name="Path 393" d="M262.075,211.3h15.694s.795-3.074-4.19-3.772S262.075,211.3,262.075,211.3Z" transform="translate(4288.051 1143.213)" fill="#2c2334"/>
    <path id="Path_394" data-name="Path 394" d="M269.693,217c2.015.876,4.172-.388,5.153-1.8a4.653,4.653,0,0,0,.795-2.489H267.32A4.237,4.237,0,0,0,269.693,217Z" transform="translate(4288.051 1143.213)" fill="#2c2334"/>
    <path id="Path_395" data-name="Path 395" d="M281.324,178.232H261.663c-8.041-.113-8.57,12.478-18.59,16.851a37.584,37.584,0,0,1-18.237,3.151l6.125-20.468a25.632,25.632,0,0,1,30.525-19.548A26,26,0,0,1,281.324,178.232Z" transform="translate(4288.051 1143.213)" fill="#2c2334"/>
    <path id="Path_396" data-name="Path 396" d="M259.164,224.511l-15.238-3.346,12.82,11.912Z" transform="translate(4288.051 1143.213)" fill="#2c2334"/>
    <circle id="Ellipse_20" data-name="Ellipse 20" cx="8.402" cy="8.402" r="8.402" transform="matrix(0.813, -0.582, 0.582, 0.813, 4517.066, 1334.945)" fill="#ffa669"/>
    <g id="Group_218" data-name="Group 218" transform="translate(4288.051 1143.213)">
      <path id="Path_397" data-name="Path 397" d="M276.2,206.051h-3.846v-1.368h2.479v-5.9H276.2Z" fill="#2c2334"/>
    </g>
    <path id="Path_398" data-name="Path 398" d="M227.429,183.257h55.206s1.825-27.073-25.8-27.073C229.894,156.184,227.429,183.257,227.429,183.257Z" transform="translate(4288.051 1143.213)" fill="#115598"/>
    <path id="Path_399" data-name="Path 399" d="M255.045,182.159s13.871,8.205,22.414,8.2,5.194-8.627,5.194-8.627Z" transform="translate(4288.051 1143.213)" fill="#115598"/>
    <path id="Path_400" data-name="Path 400" d="M235.973,176.678,220.8,182.293a7.825,7.825,0,0,0-2.632,13.052L231.154,207.5Z" transform="translate(4288.051 1143.213)" fill="#115598"/>
    <rect id="Rectangle_83" data-name="Rectangle 83" width="60.463" height="8.676" rx="4.338" transform="translate(4514.056 1315.553)" fill="#2c2334"/>
    <path id="Path_401" data-name="Path 401" d="M271.408,191.608a4.536,4.536,0,0,0-1.925-1.615c-1.589-.663-2.824.079-5.959.5-2.9.388-4.055.047-4.1.31-.087.541,4.643,2.616,9.623,1.552A13.069,13.069,0,0,0,271.408,191.608Z" transform="translate(4288.051 1143.213)" fill="#2c2334"/>
    <path id="Path_402" data-name="Path 402" d="M278.311,191.014a4.531,4.531,0,0,1,1.924-1.614c1.59-.664,2.824.078,5.96.5,2.9.388,4.055.047,4.1.311.088.54-4.643,2.616-9.622,1.552A13.09,13.09,0,0,1,278.311,191.014Z" transform="translate(4288.051 1143.213)" fill="#2c2334"/>
    <path id="Path_403" data-name="Path 403" d="M270.293,195.958a7.967,7.967,0,0,1-.09,4.264,2.263,2.263,0,0,1-1.921,1.69,2.181,2.181,0,0,1-1.477-.742c-1.664-1.614-1.173-4.224-.983-5.045a4.831,4.831,0,0,1,4.471-.167Z" transform="translate(4288.051 1143.213)" fill="#2c2334"/>
    <path id="Path_404" data-name="Path 404" d="M284.639,195.958a7.962,7.962,0,0,1-.089,4.264,2.262,2.262,0,0,1-1.922,1.69,2.178,2.178,0,0,1-1.476-.742c-1.665-1.614-1.174-4.224-.984-5.045a4.831,4.831,0,0,1,4.471-.167Z" transform="translate(4288.051 1143.213)" fill="#2c2334"/>
    <g id="Group_224" data-name="Group 224" transform="translate(4288.051 1143.213)">
      <g id="Group_219" data-name="Group 219">
        <path id="Path_405" data-name="Path 405" d="M262.806,197.375,248.613,190.7l-.408-1,14.877,6.788Z" fill="url(#linear-gradient)"/>
      </g>
      <g id="Group_222" data-name="Group 222">
        <g id="Group_220" data-name="Group 220">
          <path id="Path_406" data-name="Path 406" d="M267.754,205.235c-3.154-.007-5.713-3.447-5.7-7.668s2.585-7.649,5.739-7.642,5.713,3.447,5.7,7.668S270.909,205.242,267.754,205.235Zm.032-14.166c-2.524-.006-4.583,2.91-4.592,6.5s2.039,6.515,4.563,6.521,4.584-2.91,4.592-6.5S270.311,191.075,267.786,191.069Z" fill="#fff"/>
        </g>
        <g id="Group_221" data-name="Group 221">
          <path id="Path_407" data-name="Path 407" d="M280.854,205.155c-2.168-.005-3.858-3.324-3.849-7.557s1.715-7.544,3.883-7.539,3.859,3.324,3.85,7.557S283.022,205.16,280.854,205.155Zm.032-14.166c-1.418,0-2.942,2.653-2.95,6.611s1.5,6.622,2.92,6.625,2.942-2.652,2.951-6.611S282.3,190.992,280.886,190.989Z" fill="#fff"/>
        </g>
      </g>
      <g id="Group_223" data-name="Group 223">
        <rect id="Rectangle_84" data-name="Rectangle 84" width="0.93" height="4.146" transform="matrix(0.002, -1, 1, 0.002, 273.324, 198.057)" fill="#fff"/>
      </g>
    </g>
    <g id="Group_226" data-name="Group 226" transform="translate(4288.051 1143.213)">
      <g id="Group_225" data-name="Group 225">
        <path id="Path_408" data-name="Path 408" d="M249.906,355.923l-7.84-96.134,3.936-.177,7.84,96.134Z" fill="#2c2334"/>
      </g>
      <path id="Path_409" data-name="Path 409" d="M252.635,250.609l-2.275-1.288-6.113,15.765,1.257-18.513-27.283-15.444-7.394,18.237,36.02,21.743Z" fill="#fff"/>
    </g>
    <path id="Path_410" data-name="Path 410" d="M253.079,183.256a18.631,18.631,0,0,0-4.341,1.147,17.787,17.787,0,0,0-3.321,1.711c-.147.1-.294.2-.439.3a13.116,13.116,0,0,0-5.623,10.071,21.051,21.051,0,0,0,.345,5.525c.074.4.159.809.258,1.229.206.894.464,1.832.781,2.808,2.067,6.38.295,19.289-3.245,34.338-.187.8-.379,1.612-.58,2.424-1.255,5.157-2.7,10.528-4.253,15.95q-.259.909-.527,1.827c-9.225,31.772-21.854,64.567-21.854,64.567s4.5-55.846-9.877-67.891c-4.8-4.024-11.153-6.618-19.552-6.371-8.794.257.6,50.655-4.33,48.052V262.122c17.315-8.35,25.4-45.416,42.4-66.07a69.878,69.878,0,0,0,8.5-12.8Z" transform="translate(4288.051 1143.213)" fill="#115598"/>
    <g id="Group_234" data-name="Group 234" transform="translate(4288.051 1143.213)">
      <g id="Group_233" data-name="Group 233">
        <g id="Group_232" data-name="Group 232">
          <g id="Group_231" data-name="Group 231">
            <g id="Group_230" data-name="Group 230">
              <path id="Path_411" data-name="Path 411" d="M201.561,206.027c3.125-7.835,8.212-18.586,11.7-20.24,3.658-1.736,16.762-7.323,20.226-7.64s15.8,3.155,18.041,5.313c1.794,1.727-1.237,5.918-8.254,5.394-6.56-.49-8.1-.931-9.988-.615-1.921.322-7.482,4.908-6.957,7.677.309,1.631,4.148,4.4,7.1,3.86s4.707-3.455,8.348-5.183,8.91-.106,8.862,1.413-1.979,1.758-5.924,5.987c-2.537,2.719-4.332,8.082-9.66,12.523-2.678,2.232-7.962,8.626-7.962,8.626Z" fill="#ffa669"/>
              <g id="Group_227" data-name="Group 227">
                <path id="Path_412" data-name="Path 412" d="M213.259,185.787c3.575-3.413,11.975-9.086,19.13-9.983,4.835-.606,18.214,10.545,17.055,13.342s-3.758,2.167-7.491.762c-1.36-.512-8.114-5-9.76-3.756-2.365,1.787-6.553,8.854-6.553,8.854Z" fill="#ffa669"/>
                <path id="Path_413" data-name="Path 413" d="M249.347,187.919c-1.112-3.575-4.832-6.252-8.617-8.575-.059-.036-.119.052-.06.088.964.593,6.9,5.323,8.619,8.525C249.309,187.993,249.358,187.954,249.347,187.919Z" fill="#1a2e35"/>
              </g>
              <g id="Group_228" data-name="Group 228">
                <path id="Path_414" data-name="Path 414" d="M213.259,185.787c3.575-3.413,11.975-9.086,19.13-9.983,4.835-.606,14.529,11.833,13.369,14.63s-4.948,2.109-8.718-.343c-1.219-.792-4.912-5.039-6.558-3.8-2.365,1.787-8.157,6.243-8.157,6.243Z" fill="#ffa669"/>
                <path id="Path_415" data-name="Path 415" d="M225.722,189.73c.572-.536.769-.725,1.351-1.252s1.167-1.041,1.782-1.522a5.963,5.963,0,0,1,1.717-1.1,3.016,3.016,0,0,1,1.913.09,10.643,10.643,0,0,1,3.506,2.707c1.163,1.111,3.662,3.064,5.869,3.366a4.338,4.338,0,0,0,1.812-.042,2.729,2.729,0,0,0,1.217-.56c1.323-1.354.6-3.448-.274-5.021a28.337,28.337,0,0,0-6.743-7.532c-.625-.524-1.264-1.033-1.9-1.541a6.613,6.613,0,0,0-2.425-1.389c-1.493-.379-4.316.536-5.19.808-.066.02-.086-.084-.021-.1,1.06-.347,3.8-1.65,6.178-.933a7.762,7.762,0,0,1,2.3,1.463c.751.57,1.485,1.165,2.2,1.776a34.928,34.928,0,0,1,3.927,3.852,14.684,14.684,0,0,1,2.885,4.481,4.324,4.324,0,0,1-.8,4.367,3.771,3.771,0,0,1-3.067.775,7.29,7.29,0,0,1-1.9-.487,31.05,31.05,0,0,1-3.836-2.227c-1.179-.843-2.14-2.015-3.387-2.754a2.6,2.6,0,0,0-1.982-.353,6.9,6.9,0,0,0-1.786.971,21.157,21.157,0,0,0-3.147,2.288C225.66,190.094,225.483,189.955,225.722,189.73Z" fill="#1a2e35"/>
              </g>
              <g id="Group_229" data-name="Group 229">
                <path id="Path_416" data-name="Path 416" d="M210.474,188.847c1.422-1.692,4.976-9.238,7.108-11.294s11.205-8.753,14.382-7.583c3.994,1.47-2.108,7.815-5.01,10.333s-3.814,7.786-3.814,7.786Z" fill="#ffa669"/>
                <path id="Path_417" data-name="Path 417" d="M231.2,175.988c-1,.776-1.943,1.679-2.862,2.551a24.931,24.931,0,0,0-2.58,2.569,10.954,10.954,0,0,0-1.635,3.185c-.195.558-.353,1.123-.5,1.7-.158.625-.257,1.269-.426,1.89-.018.066.082.1.1.035a27.366,27.366,0,0,1,1.284-3.295,14.931,14.931,0,0,1,1.864-3.136c1.489-1.914,3.367-3.486,4.874-5.386C231.381,176.02,231.268,175.933,231.2,175.988Z" fill="#1a2e35"/>
              </g>
              <path id="Path_418" data-name="Path 418" d="M231.943,199.764a5.27,5.27,0,0,0,3.712-1.3c.961-.736,1.874-1.534,2.841-2.263a12.537,12.537,0,0,1,3.089-1.868,14.29,14.29,0,0,1,3.979-.7,7.8,7.8,0,0,1,3.843.519c.987.453,2.025,1.457,1.507,2.658a4.758,4.758,0,0,1-1.083,1.413,12.275,12.275,0,0,1-1.352,1.123c-.958.7-1.975,1.332-2.866,2.129a18.544,18.544,0,0,0-2.861,3.826c-.322.49-2.383,3.835-3.17,4.967a19.561,19.561,0,0,1-2.22,2.709,27.5,27.5,0,0,1-2.555,2.126,16.328,16.328,0,0,0-2.667,2.439c-.036.044-.1-.015-.073-.06,1.012-1.871,2.83-3.138,4.479-4.385,2.143-1.62,6.843-9.908,7.7-11.036,1.424-1.877,3.606-2.792,5.237-4.43.374-.376.947-.916.93-1.5a1.637,1.637,0,0,0-1-1.246,6.677,6.677,0,0,0-3.761-.4,17.12,17.12,0,0,0-3.822.673,12.574,12.574,0,0,0-3.041,1.629c-1.071.757-2.1,1.546-3.226,2.223a5.261,5.261,0,0,1-3.647.856C231.851,199.851,231.878,199.76,231.943,199.764Z" fill="#1a2e35"/>
              <path id="Path_419" data-name="Path 419" d="M249.464,182.459c-.871-.414-1.733-.862-2.612-1.256-.023-.01-.013-.047.011-.038,1.045.4,2.12.734,3.169,1.126a3.28,3.28,0,0,1,2.046,1.632,2.426,2.426,0,0,1-.462,2.386,6.518,6.518,0,0,1-2.261,1.57.039.039,0,0,1-.038-.069c1.247-.74,3.184-2.227,2.143-3.884A4.47,4.47,0,0,0,249.464,182.459Z" fill="#1a2e35"/>
              <path id="Path_420" data-name="Path 420" d="M245.343,190.88a5.412,5.412,0,0,0,2.945-.545,2.084,2.084,0,0,0,1.057-1.606,1.039,1.039,0,0,0-.1-.711c-.043-.052.053-.1.067-.036a3.3,3.3,0,0,0,.165.383,1.593,1.593,0,0,1,.077.343,1.774,1.774,0,0,1-.05.688,2.254,2.254,0,0,1-.861,1.219,3.746,3.746,0,0,1-3.313.346A.042.042,0,0,1,245.343,190.88Z" fill="#1a2e35"/>
            </g>
          </g>
          <path id="Path_421" data-name="Path 421" d="M227.087,223.142c-2.068,7.785-17.982,49.335-22.488,55.221s-15.5,7.261-18.691-3.263,12.342-61.145,15.653-69.073C203.4,201.613,227.834,220.326,227.087,223.142Z" fill="#ffa669"/>
        </g>
      </g>
      <path id="Path_422" data-name="Path 422" d="M222.485,240.879,191.2,217.06s-37.867,49.73-30.461,84.935S197.7,316.413,222.485,240.879Z" fill="#fff"/>
    </g>
    <g id="Group_243" data-name="Group 243" transform="translate(4288.051 1143.213)">
      <g id="Group_235" data-name="Group 235">
        <path id="Path_423" data-name="Path 423" d="M375.966,289.716l2.356,42.326s-30.878,6.787-44.354,2.132c-16.364-5.653-40.306-56.327-43.585-64.657-5.381-13.674-3.89-21.954,3.737-19.929,2.963.762,6.861,3.1,11.637,7.3,5,4.382,33.7,32.825,42.763,38.2C353.586,298.1,375.966,289.716,375.966,289.716Z" fill="#fff"/>
        <path id="Path_424" data-name="Path 424" d="M359.414,324.829a9.366,9.366,0,0,0-2.33,1.227,9.311,9.311,0,0,0,2.565-.591,9.121,9.121,0,0,0,2.33-1.222A9.073,9.073,0,0,0,359.414,324.829Zm-23.262-33.247a9.121,9.121,0,0,0-2.324,1.223,10.085,10.085,0,0,0,4.889-1.814A9.161,9.161,0,0,0,336.152,291.582Zm-23.469-20.088a9.331,9.331,0,0,0-2.329,1.228,10.138,10.138,0,0,0,4.894-1.814A9.3,9.3,0,0,0,312.683,271.494ZM329.742,317a9.289,9.289,0,0,0-2.329,1.222A10.07,10.07,0,0,0,332.3,316.4,9.087,9.087,0,0,0,329.742,317Zm27.3-16.313a9.265,9.265,0,0,0-2.33,1.228,9.3,9.3,0,0,0,2.565-.591,9.154,9.154,0,0,0,2.33-1.222A9.038,9.038,0,0,0,357.044,300.683Zm-41-7.4a9.334,9.334,0,0,0-2.324,1.228,9.392,9.392,0,0,0,2.565-.591,9.171,9.171,0,0,0,2.324-1.228A9.3,9.3,0,0,0,316.046,293.281Zm61.419,23.371c-.1-.39-.223-.775-.355-1.153a9.351,9.351,0,0,0-1.228-2.33,9.1,9.1,0,0,0,.591,2.565,9.594,9.594,0,0,0,1.056,2.1Zm-32.437,2.358a9.308,9.308,0,0,0-1.222-2.329,9.335,9.335,0,0,0,.586,2.564,9.156,9.156,0,0,0,1.227,2.33A9.059,9.059,0,0,0,345.028,319.01Zm-20.553-36.241a9.334,9.334,0,0,0-1.228-2.324,9.31,9.31,0,0,0,.591,2.565,9.119,9.119,0,0,0,1.222,2.324A9.154,9.154,0,0,0,324.475,282.769Zm-22.6-22.252a9.277,9.277,0,0,0-1.222-2.33,10.07,10.07,0,0,0,1.813,4.889A9.079,9.079,0,0,0,301.873,260.517Zm32.012,69.149a9.09,9.09,0,0,0-2.513-.781,9.147,9.147,0,0,0,2.226,1.395,9.277,9.277,0,0,0,2.514.78A9.3,9.3,0,0,0,333.885,329.666Zm28.157-17.415a9.173,9.173,0,0,0-2.514-.775,10.252,10.252,0,0,0,4.746,2.175A9.509,9.509,0,0,0,362.042,312.251ZM352.769,335.5a9.1,9.1,0,0,0-2.513-.781,7.519,7.519,0,0,0,1.388.964c.454-.023.9-.046,1.355-.074C352.924,335.57,352.844,335.53,352.769,335.5ZM330,302.473a9.072,9.072,0,0,0-2.514-.78,10.221,10.221,0,0,0,4.74,2.175A9.148,9.148,0,0,0,330,302.473ZM295.584,272.6a9.1,9.1,0,0,0-2.513-.78,9.174,9.174,0,0,0,2.226,1.394,9.308,9.308,0,0,0,2.513.781A9.262,9.262,0,0,0,295.584,272.6Zm21.345,36.861a8.94,8.94,0,0,0-.774,2.514,9.326,9.326,0,0,0,1.394-2.232,9.494,9.494,0,0,0,.78-2.514A9.35,9.35,0,0,0,316.929,309.456Zm-11.47-23.663a8.967,8.967,0,0,0-.775,2.513,9.3,9.3,0,0,0,1.4-2.232,9.487,9.487,0,0,0,.78-2.513A9.541,9.541,0,0,0,305.459,285.793Zm36.523,19a9.318,9.318,0,0,0-.781,2.513,9.019,9.019,0,0,0,1.4-2.226,9.525,9.525,0,0,0,.781-2.513A9.1,9.1,0,0,0,341.982,304.8Zm-54.345-44.4c.057.316.12.632.2.959a8.364,8.364,0,0,0,.568-2.009A6.976,6.976,0,0,0,287.637,260.4Z" fill="#fff"/>
        <path id="Path_425" data-name="Path 425" d="M370.594,331.395c-.535-6.244-1.794-31.877-1.691-37.434.007-.385.253-.474.3-.073,2.056,18.674,1.428,31.326,1.64,37.477C370.846,331.519,370.608,331.554,370.594,331.395Z" fill="#fff"/>
        <path id="Path_426" data-name="Path 426" d="M290.379,269.511c3.273,8.331,27.23,59.013,43.585,64.661,4.031,1.393,9.642,1.758,15.513,1.6l-56.374-86.4a4.811,4.811,0,0,0-3.872.786C286.192,252.546,286.485,259.628,290.379,269.511Z" fill="#fff" opacity="0.1"/>
      </g>
      <g id="Group_242" data-name="Group 242">
        <g id="Group_238" data-name="Group 238">
          <g id="Group_236" data-name="Group 236">
            <path id="Path_427" data-name="Path 427" d="M335.441,329.973l-1.7,9.636h53.43a6.535,6.535,0,0,0,6.173-5.248l.774-4.388Z" fill="#8ec8ef"/>
            <path id="Path_428" data-name="Path 428" d="M329.419,334.361l.774-4.388h10.5l-.773,4.388a6.537,6.537,0,0,1-6.174,5.248,4.363,4.363,0,0,1-3.443-1.535A4.533,4.533,0,0,1,329.419,334.361Z" fill="#caecff"/>
          </g>
          <path id="Path_429" data-name="Path 429" d="M352.8,261.269l-13.814,78.34h48.182a6.535,6.535,0,0,0,6.173-5.248l13.814-78.34H358.978a6.228,6.228,0,0,0-3.985,1.534A6.438,6.438,0,0,0,352.8,261.269Z" fill="#8ec8ef"/>
          <g id="Group_237" data-name="Group 237">
            <path id="Path_430" data-name="Path 430" d="M358.978,256.021l-2.791,15.825h58.678l1.865-10.577a4.284,4.284,0,0,0-4.323-5.248Z" fill="#caecff"/>
            <path id="Path_431" data-name="Path 431" d="M352.8,261.269l-1.865,10.577h10.5l1.865-10.577a4.284,4.284,0,0,0-4.322-5.248,6.228,6.228,0,0,0-3.985,1.534A6.438,6.438,0,0,0,352.8,261.269Z" fill="#8ec8ef"/>
          </g>
        </g>
        <g id="Group_241" data-name="Group 241">
          <g id="Group_240" data-name="Group 240">
            <path id="Path_432" data-name="Path 432" d="M400.075,286.316c1.961,5.591,7.62,12.876,7.679,17.28a5.052,5.052,0,0,1-3.352,5.009s4.107,2.624,3.5,6.629c-.311,2.06-3.876,3.374-3.876,3.374s3.2,2.246,2.443,5.774c-.6,2.811-4.086,3.707-4.086,3.707s2.065,3.586.533,6.252c-3.109,5.408-27.65,2.8-30.48-6.643-1.319-4.4,4.64-3.438,4.64-3.438s-8.235-3.454-7.827-8.527,8.076-3.355,8.076-3.355-7.952-3.417-7-8.634c.993-5.431,8.368-2.4,8.368-2.4s-5.064-4.279-3.418-8.106c2.715-6.319,12.175,2.995,17.7,2.289l3.921-8.577Z" fill="#ffa669"/>
            <path id="Path_433" data-name="Path 433" d="M404.172,294.569c-1.394-5.455,5.794-11.245,5.211-16.653-.79-7.316-9.584-1.161-12.478,9.035l-.855,8.31Z" fill="#ffa669"/>
            <g id="Group_239" data-name="Group 239">
              <path id="Path_434" data-name="Path 434" d="M401.856,328.31a.065.065,0,0,1,.011.129c-8.281,1.11-17.719-.21-25.12-4.193-.243-.131-.136-.582.159-.489A87.628,87.628,0,0,0,401.856,328.31Z" fill="#1a2e35"/>
              <path id="Path_435" data-name="Path 435" d="M404.142,318.672c.1,0,.094.161-.009.175-8.539,1.1-19.128-.682-27.118-6.278-.274-.192-.328-.639,0-.442C382.615,315.445,396.166,318.507,404.142,318.672Z" fill="#1a2e35"/>
              <path id="Path_436" data-name="Path 436" d="M378.244,300.754c7.869,5.069,16.571,7.106,25.81,7.913.12.01.093.18-.01.2-4.627.837-10.463-.291-14.929-1.553a24.671,24.671,0,0,1-11.049-6.283C377.944,300.908,378.075,300.646,378.244,300.754Z" fill="#1a2e35"/>
            </g>
          </g>
        </g>
      </g>
    </g>
    <path id="Path_437" data-name="Path 437" d="M330.847,270.268s-12.087,4.864-20.959,18.836-14.872,42.39-14.872,42.39-9.122-96.767-5.034-124.791c7.6,15.339,17.613,33.281,25.027,38.368C328.639,254.43,330.847,270.268,330.847,270.268Z" transform="translate(4288.051 1143.213)" fill="#115598"/>
    <g id="Group_245" data-name="Group 245" transform="translate(4293.614 1141.655)">
      <g id="Group_244" data-name="Group 244" transform="translate(307.884 180.899)">
        <path id="Path_438" data-name="Path 438" d="M342.684,197.585a16.68,16.68,0,0,1-26.627,13.4l-8.174,2.087,3.4-7.611a16.686,16.686,0,1,1,31.4-7.871Z" transform="translate(-307.884 -180.899)" fill="#115598"/>
      </g>
      <g id="Icon_feather-download" data-name="Icon feather-download" transform="translate(314.565 186.264)">
        <path id="Path_440" data-name="Path 440" d="M18.142,22.5v3.032a1.516,1.516,0,0,1-1.516,1.516H6.016A1.516,1.516,0,0,1,4.5,25.532V22.5" transform="translate(0 -8.905)" fill="none" stroke="#fff" stroke-linecap="round" stroke-linejoin="round" stroke-width="2"/>
        <path id="Path_441" data-name="Path 441" d="M10.5,15l3.789,3.789L18.079,15" transform="translate(-2.968 -5.195)" fill="none" stroke="#fff" stroke-linecap="round" stroke-linejoin="round" stroke-width="2"/>
        <path id="Path_442" data-name="Path 442" d="M18,13.595V4.5" transform="translate(-6.679)" fill="none" stroke="#fff" stroke-linecap="round" stroke-linejoin="round" stroke-width="2"/>
      </g>
    </g>
    <g id="Group_95" data-name="Group 95" transform="translate(4288.051 1143.213)">
      <path id="Path_226" data-name="Path 226" d="M172.971,253.085c.005,3.32.046,6.64,0,9.959a3.631,3.631,0,0,1-3.668,3.507c-3.181.029-6.361.01-9.542.01-6.151,0-12.3-.066-18.455.03a3.992,3.992,0,0,1-4.274-3.691,3.85,3.85,0,0,1,0-.558c.112-3.082.041-6.172.048-9.258.341-.344.781-.262,1.193-.262q7.149-.009,14.3,0,9.567,0,19.134,0C172.141,252.827,172.61,252.725,172.971,253.085Z" fill="#2195f2"/>
      <path id="Path_227" data-name="Path 227" d="M172.97,253.086H137.082V247.14a1.3,1.3,0,0,1,.935-.213q17.009-.009,34.018,0a1.3,1.3,0,0,1,.935.213Z" fill="#455a64"/>
      <path id="Path_228" data-name="Path 228" d="M172.971,247.139H137.083c-.115-2.309.864-3.857,2.768-4.383a5.408,5.408,0,0,1,1.463-.11c9.144,0,18.288.05,27.432-.034A3.938,3.938,0,0,1,172.971,247.139Z" fill="#2195f2"/>
      <path id="Path_229" data-name="Path 229" d="M147.515,262.071c-1.633,0-3.27-.006-4.906,0-.54,0-1.04-.084-1.035-.742s.515-.729,1.05-.728q4.941.009,9.881,0c.509,0,.976.071.994.706.016.68-.463.765-1,.763C150.832,262.067,149.174,262.071,147.515,262.071Z" fill="#f9f9f9"/>
      <path id="Path_230" data-name="Path 230" d="M145.342,259.093c-.935,0-1.87-.007-2.8,0-.536.006-.963-.165-.966-.755s.449-.759.969-.759c1.846,0,3.691-.005,5.537,0,.522,0,.948.182.923.8-.023.568-.426.717-.927.714Z" fill="#f8f8f9"/>
    </g>
  </g>
</svg>
